<?xml version="1.0" encoding="UTF-8" standalone="no"?><svg xmlns="http://www.w3.org/2000/svg" xmlns:xlink="http://www.w3.org/1999/xlink" contentStyleType="text/css" height="1283px" preserveAspectRatio="none" style="width:3029px;height:1283px;background:#FFFFFF;" version="1.1" viewBox="0 0 3029 1283" width="3029px" zoomAndPan="magnify"><defs/><g><!--MD5=[11ead6906dfffc0ca49d124d4c92460c]
cluster MyGame--><g id="cluster_MyGame"><path d="M85.6,6 L146.6,6 A3.75,3.75 0 0 1 149.1,8.5 L156.1,29.6094 L3019.6,29.6094 A2.5,2.5 0 0 1 3022.1,32.1094 L3022.1,1274 A2.5,2.5 0 0 1 3019.6,1276.5 L85.6,1276.5 A2.5,2.5 0 0 1 83.1,1274 L83.1,8.5 A2.5,2.5 0 0 1 85.6,6 " fill="#ADD8E6" style="stroke:#000000;stroke-width:1.5;"/><line style="stroke:#000000;stroke-width:1.5;" x1="83.1" x2="156.1" y1="29.6094" y2="29.6094"/><text fill="#000000" font-family="sans-serif" font-size="14" font-weight="bold" lengthAdjust="spacing" textLength="60" x="87.1" y="22.5332">MyGame</text></g><!--MD5=[48e1af14c5ce256900cfb4a9b9a5fc69]
cluster MyGame::DTOs--><g id="cluster_MyGame::DTOs"><path d="M2729.6,67.5 L2767.6,67.5 A3.75,3.75 0 0 1 2770.1,70 L2777.1,91.1094 L2995.6,91.1094 A2.5,2.5 0 0 1 2998.1,93.6094 L2998.1,424.5 A2.5,2.5 0 0 1 2995.6,427 L2729.6,427 A2.5,2.5 0 0 1 2727.1,424.5 L2727.1,70 A2.5,2.5 0 0 1 2729.6,67.5 " fill="#778899" style="stroke:#000000;stroke-width:1.5;"/><line style="stroke:#000000;stroke-width:1.5;" x1="2727.1" x2="2777.1" y1="91.1094" y2="91.1094"/><text fill="#000000" font-family="sans-serif" font-size="14" font-weight="bold" lengthAdjust="spacing" textLength="37" x="2731.1" y="84.0332">DTOs</text></g><!--MD5=[2917e1e8962e59aacb1ce0cd1d97b16e]
cluster MyGame::NetworkLib--><g id="cluster_MyGame::NetworkLib"><path d="M408.6,50 L488.6,50 A3.75,3.75 0 0 1 491.1,52.5 L498.1,73.6094 L2361.6,73.6094 A2.5,2.5 0 0 1 2364.1,76.1094 L2364.1,1139 A2.5,2.5 0 0 1 2361.6,1141.5 L408.6,1141.5 A2.5,2.5 0 0 1 406.1,1139 L406.1,52.5 A2.5,2.5 0 0 1 408.6,50 " fill="#D3D3D3" style="stroke:#000000;stroke-width:1.5;"/><line style="stroke:#000000;stroke-width:1.5;" x1="406.1" x2="498.1" y1="73.6094" y2="73.6094"/><text fill="#000000" font-family="sans-serif" font-size="14" font-weight="bold" lengthAdjust="spacing" textLength="79" x="410.1" y="66.5332">NetworkLib</text></g><!--MD5=[c1a4a1bb47fed6ac83e53d2b9e24fcc3]
cluster MyGame::NetworkLib::Common--><g id="cluster_MyGame::NetworkLib::Common"><path d="M1222.6,528.5 L1284.6,528.5 A3.75,3.75 0 0 1 1287.1,531 L1294.1,552.1094 L2337.6,552.1094 A2.5,2.5 0 0 1 2340.1,554.6094 L2340.1,1068.5 A2.5,2.5 0 0 1 2337.6,1071 L1222.6,1071 A2.5,2.5 0 0 1 1220.1,1068.5 L1220.1,531 A2.5,2.5 0 0 1 1222.6,528.5 " fill="#FFFFE0" style="stroke:#000000;stroke-width:1.5;"/><line style="stroke:#000000;stroke-width:1.5;" x1="1220.1" x2="1294.1" y1="552.1094" y2="552.1094"/><text fill="#000000" font-family="sans-serif" font-size="14" font-weight="bold" lengthAdjust="spacing" textLength="61" x="1224.1" y="545.0332">Common</text></g><!--MD5=[ce4ed3b1aa1b10c535401669ea5fb3ba]
cluster MyGame::NetworkLib::Common::DTOs--><g id="cluster_MyGame::NetworkLib::Common::DTOs"><path d="M1488.6,572.5 L1526.6,572.5 A3.75,3.75 0 0 1 1529.1,575 L1536.1,596.1094 L2013.6,596.1094 A2.5,2.5 0 0 1 2016.1,598.6094 L2016.1,846 A2.5,2.5 0 0 1 2013.6,848.5 L1488.6,848.5 A2.5,2.5 0 0 1 1486.1,846 L1486.1,575 A2.5,2.5 0 0 1 1488.6,572.5 " fill="#90EE90" style="stroke:#000000;stroke-width:1.5;"/><line style="stroke:#000000;stroke-width:1.5;" x1="1486.1" x2="1536.1" y1="596.1094" y2="596.1094"/><text fill="#000000" font-family="sans-serif" font-size="14" font-weight="bold" lengthAdjust="spacing" textLength="37" x="1490.1" y="589.0332">DTOs</text></g><!--MD5=[29c8399a1f15b3bbae7ff29febbfd265]
cluster MyGame::NetworkLib::Common::Logger--><g id="cluster_MyGame::NetworkLib::Common::Logger"><path d="M2042.6,634 L2093.6,634 A3.75,3.75 0 0 1 2096.1,636.5 L2103.1,657.6094 L2313.6,657.6094 A2.5,2.5 0 0 1 2316.1,660.1094 L2316.1,1044.5 A2.5,2.5 0 0 1 2313.6,1047 L2042.6,1047 A2.5,2.5 0 0 1 2040.1,1044.5 L2040.1,636.5 A2.5,2.5 0 0 1 2042.6,634 " fill="#90EE90" style="stroke:#000000;stroke-width:1.5;"/><line style="stroke:#000000;stroke-width:1.5;" x1="2040.1" x2="2103.1" y1="657.6094" y2="657.6094"/><text fill="#000000" font-family="sans-serif" font-size="14" font-weight="bold" lengthAdjust="spacing" textLength="50" x="2044.1" y="650.5332">Logger</text></g><!--MD5=[2e3638b9f91793eaf24f442d0be34707]
cluster MyGame::NetworkLib::GameClient--><g id="cluster_MyGame::NetworkLib::GameClient"><path d="M872.6,590 L954.6,590 A3.75,3.75 0 0 1 957.1,592.5 L964.1,613.6094 L1193.6,613.6094 A2.5,2.5 0 0 1 1196.1,616.1094 L1196.1,1115 A2.5,2.5 0 0 1 1193.6,1117.5 L872.6,1117.5 A2.5,2.5 0 0 1 870.1,1115 L870.1,592.5 A2.5,2.5 0 0 1 872.6,590 " fill="#FFFFE0" style="stroke:#000000;stroke-width:1.5;"/><line style="stroke:#000000;stroke-width:1.5;" x1="870.1" x2="964.1" y1="613.6094" y2="613.6094"/><text fill="#000000" font-family="sans-serif" font-size="14" font-weight="bold" lengthAdjust="spacing" textLength="81" x="874.1" y="606.5332">GameClient</text></g><!--MD5=[ecef6d309c150906136ad5c645c2d975]
cluster MyGame::NetworkLib::GameServer--><g id="cluster_MyGame::NetworkLib::GameServer"><path d="M432.6,256.5 L521.6,256.5 A3.75,3.75 0 0 1 524.1,259 L531.1,280.1094 L843.6,280.1094 A2.5,2.5 0 0 1 846.1,282.6094 L846.1,1062 A2.5,2.5 0 0 1 843.6,1064.5 L432.6,1064.5 A2.5,2.5 0 0 1 430.1,1062 L430.1,259 A2.5,2.5 0 0 1 432.6,256.5 " fill="#FFFFE0" style="stroke:#000000;stroke-width:1.5;"/><line style="stroke:#000000;stroke-width:1.5;" x1="430.1" x2="531.1" y1="280.1094" y2="280.1094"/><text fill="#000000" font-family="sans-serif" font-size="14" font-weight="bold" lengthAdjust="spacing" textLength="88" x="434.1" y="273.0332">GameServer</text></g><!--MD5=[f3d6229d8dbba089416028cfdd2e2771]
cluster MyGame::Client--><g id="cluster_MyGame::Client"><path d="M2509.6,269 L2551.6,269 A3.75,3.75 0 0 1 2554.1,271.5 L2561.1,292.6094 L2700.6,292.6094 A2.5,2.5 0 0 1 2703.1,295.1094 L2703.1,482.5 A2.5,2.5 0 0 1 2700.6,485 L2509.6,485 A2.5,2.5 0 0 1 2507.1,482.5 L2507.1,271.5 A2.5,2.5 0 0 1 2509.6,269 " fill="#778899" style="stroke:#000000;stroke-width:1.5;"/><line style="stroke:#000000;stroke-width:1.5;" x1="2507.1" x2="2561.1" y1="292.6094" y2="292.6094"/><text fill="#000000" font-family="sans-serif" font-size="14" font-weight="bold" lengthAdjust="spacing" textLength="41" x="2511.1" y="285.5332">Client</text></g><!--MD5=[d1a1b638cd31b44d8ec43d1c72ea9cd9]
cluster MyGame::Server--><g id="cluster_MyGame::Server"><path d="M140.6,915 L189.6,915 A3.75,3.75 0 0 1 192.1,917.5 L199.1,938.6094 L347.6,938.6094 A2.5,2.5 0 0 1 350.1,941.1094 L350.1,1250 A2.5,2.5 0 0 1 347.6,1252.5 L140.6,1252.5 A2.5,2.5 0 0 1 138.1,1250 L138.1,917.5 A2.5,2.5 0 0 1 140.6,915 " fill="#778899" style="stroke:#000000;stroke-width:1.5;"/><line style="stroke:#000000;stroke-width:1.5;" x1="138.1" x2="199.1" y1="938.6094" y2="938.6094"/><text fill="#000000" font-family="sans-serif" font-size="14" font-weight="bold" lengthAdjust="spacing" textLength="48" x="142.1" y="931.5332">Server</text></g><!--MD5=[b719a226b66dfe562bd46d8a459e9658]
class MyGame::GameController--><g id="elem_MyGame::GameController"><rect codeLine="10" fill="#778899" height="199.5781" id="MyGame::GameController" rx="2.5" ry="2.5" style="stroke:#181818;stroke-width:0.5;" width="254" x="136.1" y="620.5"/><ellipse cx="208.85" cy="641.8516" fill="#ADD1B2" rx="11" ry="11" style="stroke:#181818;stroke-width:1.0;"/><path d="M211.6156,637.7266 Q211.7719,637.5078 211.9594,637.3984 Q212.1469,637.2891 212.3656,637.2891 Q212.7406,637.2891 212.975,637.5547 Q213.2094,637.8047 213.2094,638.4141 L213.2094,639.8672 Q213.2094,640.4766 212.975,640.7422 Q212.7406,641.0078 212.3656,641.0078 Q212.0219,641.0078 211.8188,640.8047 Q211.6156,640.6172 211.5063,640.1016 Q211.4594,639.7422 211.2719,639.5547 Q210.9438,639.1797 210.3344,638.9609 Q209.725,638.7422 209.1,638.7422 Q208.3344,638.7422 207.6938,639.0703 Q207.0688,639.3984 206.5688,640.1484 Q206.0844,640.8984 206.0844,641.9297 L206.0844,643.0234 Q206.0844,644.2578 206.975,645.0859 Q207.8656,645.8984 209.4594,645.8984 Q210.3969,645.8984 211.0531,645.6484 Q211.4438,645.4922 211.8656,645.0547 Q212.1313,644.7891 212.2719,644.7109 Q212.4281,644.6328 212.6313,644.6328 Q212.9594,644.6328 213.2094,644.8984 Q213.475,645.1484 213.475,645.4922 Q213.475,645.8359 213.1313,646.2422 Q212.6313,646.8203 211.8344,647.1484 Q210.7563,647.6016 209.4594,647.6016 Q207.9438,647.6016 206.7406,646.9766 Q205.7563,646.4766 205.0688,645.4141 Q204.3813,644.3359 204.3813,643.0547 L204.3813,641.8984 Q204.3813,640.5703 204.9906,639.4297 Q205.6156,638.2734 206.7094,637.6641 Q207.8031,637.0391 209.0375,637.0391 Q209.7719,637.0391 210.4125,637.2109 Q211.0688,637.3672 211.6156,637.7266 Z " fill="#000000"/><text fill="#000000" font-family="sans-serif" font-size="12" font-style="italic" lengthAdjust="spacing" textLength="100" x="229.35" y="637.957">«MonoBehaviour»</text><text fill="#000000" font-family="sans-serif" font-size="14" lengthAdjust="spacing" textLength="100" x="229.35" y="655.127">GameController</text><line style="stroke:#181818;stroke-width:0.5;" x1="137.1" x2="389.1" y1="663.2031" y2="663.2031"/><line style="stroke:#181818;stroke-width:0.5;" x1="137.1" x2="389.1" y1="671.2031" y2="671.2031"/><ellipse cx="147.1" cy="685.5078" fill="#84BE84" rx="3" ry="3" style="stroke:#038048;stroke-width:1.0;"/><text fill="#000000" font-family="sans-serif" font-size="14" lengthAdjust="spacing" textLength="81" x="156.1" y="689.7363">void Awake()</text><ellipse cx="147.1" cy="703.1172" fill="#84BE84" rx="3" ry="3" style="stroke:#038048;stroke-width:1.0;"/><text fill="#000000" font-family="sans-serif" font-size="14" lengthAdjust="spacing" textLength="70" x="156.1" y="707.3457">void Start()</text><ellipse cx="147.1" cy="720.7266" fill="#84BE84" rx="3" ry="3" style="stroke:#038048;stroke-width:1.0;"/><text fill="#000000" font-family="sans-serif" font-size="14" lengthAdjust="spacing" textLength="85" x="156.1" y="724.9551">void Update()</text><ellipse cx="147.1" cy="738.3359" fill="#84BE84" rx="3" ry="3" style="stroke:#038048;stroke-width:1.0;"/><text fill="#000000" font-family="sans-serif" font-size="14" lengthAdjust="spacing" textLength="189" x="156.1" y="742.5645">void SetServer(Server server)</text><ellipse cx="147.1" cy="755.9453" fill="#84BE84" rx="3" ry="3" style="stroke:#038048;stroke-width:1.0;"/><text fill="#000000" font-family="sans-serif" font-size="14" lengthAdjust="spacing" textLength="170" x="156.1" y="760.1738">void SetClient(Client client)</text><ellipse cx="147.1" cy="773.5547" fill="#84BE84" rx="3" ry="3" style="stroke:#038048;stroke-width:1.0;"/><text fill="#000000" font-family="sans-serif" font-size="14" lengthAdjust="spacing" textLength="121" x="156.1" y="777.7832">Server GetServer()</text><ellipse cx="147.1" cy="791.1641" fill="#84BE84" rx="3" ry="3" style="stroke:#038048;stroke-width:1.0;"/><text fill="#000000" font-family="sans-serif" font-size="14" lengthAdjust="spacing" textLength="109" x="156.1" y="795.3926">Client GetClient()</text><rect fill="#F24D5C" height="6" style="stroke:#C82930;stroke-width:1.0;" width="6" x="144.1" y="805.7734"/><text fill="#000000" font-family="sans-serif" font-size="14" lengthAdjust="spacing" textLength="228" x="156.1" y="813.002">void HandleMessage(Message msg)</text></g><!--MD5=[c09658cc43513e32be00cce235dff4d7]
class CONSTANTS--><g id="elem_CONSTANTS"><rect codeLine="125" fill="#778899" height="164.3594" id="CONSTANTS" rx="2.5" ry="2.5" style="stroke:#181818;stroke-width:0.5;" width="167" x="2460.6" y="45.5"/><ellipse cx="2498.55" cy="66.8516" fill="#F1F1F1" rx="11" ry="11" style="stroke:#181818;stroke-width:1.0;"/><path d="M2496.6594,71.4141 Q2496.4406,71.6797 2496.3,71.7578 Q2496.1594,71.8359 2495.9719,71.8359 Q2495.5812,71.8359 2495.3312,71.5703 Q2495.0969,71.3047 2495.0969,70.7109 L2495.0969,69.5547 Q2495.0969,68.9453 2495.3312,68.6953 Q2495.5812,68.4297 2495.9719,68.4297 Q2496.2687,68.4297 2496.4719,68.5859 Q2496.675,68.7422 2496.7844,69.1172 Q2496.8937,69.4766 2497.0031,69.6172 Q2497.2531,69.8672 2497.8625,70.1328 Q2498.4719,70.3984 2499.2062,70.3984 Q2500.3469,70.3984 2501.0656,69.8672 Q2501.5344,69.5391 2501.5344,69.0703 Q2501.5344,68.7578 2501.3156,68.4766 Q2501.0969,68.1953 2500.5812,68.0234 Q2500.2531,67.8984 2499.0969,67.6797 Q2497.7062,67.4141 2496.9875,67.0547 Q2496.2687,66.6953 2495.8469,66.0391 Q2495.4406,65.3672 2495.4406,64.5859 Q2495.4406,63.3672 2496.4562,62.4609 Q2497.4875,61.5391 2499.1281,61.5391 Q2499.7844,61.5391 2500.3312,61.6797 Q2500.8937,61.8203 2501.3625,62.1172 Q2501.6906,61.8047 2502.0187,61.8047 Q2502.3937,61.8047 2502.6281,62.0703 Q2502.8625,62.3203 2502.8625,62.9297 L2502.8625,64.2109 Q2502.8625,64.8203 2502.6281,65.0859 Q2502.3937,65.3359 2502.0187,65.3359 Q2501.7062,65.3359 2501.4719,65.1484 Q2501.2844,65.0078 2501.1906,64.5859 Q2501.1125,64.1641 2500.9719,63.9766 Q2500.7219,63.6641 2500.2375,63.4609 Q2499.7687,63.2422 2499.1281,63.2422 Q2498.2062,63.2422 2497.675,63.6641 Q2497.1437,64.0859 2497.1437,64.5547 Q2497.1437,64.8672 2497.3625,65.1641 Q2497.5812,65.4609 2498.0031,65.6328 Q2498.2844,65.7422 2499.5812,66.0078 Q2500.8937,66.2578 2501.5969,66.5703 Q2502.3,66.8672 2502.7687,67.5234 Q2503.2375,68.1797 2503.2375,69.0859 Q2503.2375,70.3516 2502.3469,71.1016 Q2501.1594,72.1016 2499.3312,72.1016 Q2498.6281,72.1016 2497.9562,71.9297 Q2497.3,71.7578 2496.6594,71.4141 Z " fill="#000000"/><text fill="#000000" font-family="sans-serif" font-size="12" font-style="italic" lengthAdjust="spacing" textLength="42" x="2538.65" y="62.957">«static»</text><text fill="#000000" font-family="sans-serif" font-size="14" lengthAdjust="spacing" textLength="84" x="2517.65" y="80.127">CONSTANTS</text><line style="stroke:#181818;stroke-width:0.5;" x1="2461.6" x2="2626.6" y1="88.2031" y2="88.2031"/><ellipse cx="2471.6" cy="102.5078" fill="none" rx="3" ry="3" style="stroke:#038048;stroke-width:1.0;"/><text fill="#000000" font-family="sans-serif" font-size="14" lengthAdjust="spacing" text-decoration="underline" textLength="58" x="2480.6" y="106.7363">int PORT</text><ellipse cx="2471.6" cy="120.1172" fill="none" rx="3" ry="3" style="stroke:#038048;stroke-width:1.0;"/><text fill="#000000" font-family="sans-serif" font-size="14" lengthAdjust="spacing" text-decoration="underline" textLength="141" x="2480.6" y="124.3457">Vector3 CameraOffset</text><ellipse cx="2471.6" cy="137.7266" fill="none" rx="3" ry="3" style="stroke:#038048;stroke-width:1.0;"/><text fill="#000000" font-family="sans-serif" font-size="14" lengthAdjust="spacing" text-decoration="underline" textLength="76" x="2480.6" y="141.9551">float Gravity</text><ellipse cx="2471.6" cy="155.3359" fill="none" rx="3" ry="3" style="stroke:#038048;stroke-width:1.0;"/><text fill="#000000" font-family="sans-serif" font-size="14" lengthAdjust="spacing" text-decoration="underline" textLength="130" x="2480.6" y="159.5645">float ProjectileSpeed</text><ellipse cx="2471.6" cy="172.9453" fill="none" rx="3" ry="3" style="stroke:#038048;stroke-width:1.0;"/><text fill="#000000" font-family="sans-serif" font-size="14" lengthAdjust="spacing" text-decoration="underline" textLength="112" x="2480.6" y="177.1738">float PlayerSpeed</text><ellipse cx="2471.6" cy="190.5547" fill="none" rx="3" ry="3" style="stroke:#038048;stroke-width:1.0;"/><text fill="#000000" font-family="sans-serif" font-size="14" lengthAdjust="spacing" text-decoration="underline" textLength="101" x="2480.6" y="194.7832">float JumpForce</text><line style="stroke:#181818;stroke-width:0.5;" x1="2461.6" x2="2626.6" y1="201.8594" y2="201.8594"/></g><!--MD5=[8627410c5c6b6ec53dfac12eada1b9c4]
class MyGame::UnityLogger--><g id="elem_MyGame::UnityLogger"><rect codeLine="154" fill="#778899" height="48" id="MyGame::UnityLogger" rx="2.5" ry="2.5" style="stroke:#181818;stroke-width:0.5;" width="108" x="2380.1" y="363"/><ellipse cx="2395.1" cy="379" fill="#ADD1B2" rx="11" ry="11" style="stroke:#181818;stroke-width:1.0;"/><path d="M2397.8656,374.875 Q2398.0219,374.6563 2398.2094,374.5469 Q2398.3969,374.4375 2398.6156,374.4375 Q2398.9906,374.4375 2399.225,374.7031 Q2399.4594,374.9531 2399.4594,375.5625 L2399.4594,377.0156 Q2399.4594,377.625 2399.225,377.8906 Q2398.9906,378.1563 2398.6156,378.1563 Q2398.2719,378.1563 2398.0688,377.9531 Q2397.8656,377.7656 2397.7563,377.25 Q2397.7094,376.8906 2397.5219,376.7031 Q2397.1938,376.3281 2396.5844,376.1094 Q2395.975,375.8906 2395.35,375.8906 Q2394.5844,375.8906 2393.9438,376.2188 Q2393.3188,376.5469 2392.8188,377.2969 Q2392.3344,378.0469 2392.3344,379.0781 L2392.3344,380.1719 Q2392.3344,381.4063 2393.225,382.2344 Q2394.1156,383.0469 2395.7094,383.0469 Q2396.6469,383.0469 2397.3031,382.7969 Q2397.6938,382.6406 2398.1156,382.2031 Q2398.3813,381.9375 2398.5219,381.8594 Q2398.6781,381.7813 2398.8813,381.7813 Q2399.2094,381.7813 2399.4594,382.0469 Q2399.725,382.2969 2399.725,382.6406 Q2399.725,382.9844 2399.3813,383.3906 Q2398.8813,383.9688 2398.0844,384.2969 Q2397.0063,384.75 2395.7094,384.75 Q2394.1938,384.75 2392.9906,384.125 Q2392.0063,383.625 2391.3188,382.5625 Q2390.6313,381.4844 2390.6313,380.2031 L2390.6313,379.0469 Q2390.6313,377.7188 2391.2406,376.5781 Q2391.8656,375.4219 2392.9594,374.8125 Q2394.0531,374.1875 2395.2875,374.1875 Q2396.0219,374.1875 2396.6625,374.3594 Q2397.3188,374.5156 2397.8656,374.875 Z " fill="#000000"/><text fill="#000000" font-family="sans-serif" font-size="14" lengthAdjust="spacing" textLength="76" x="2409.1" y="384.7285">UnityLogger</text><line style="stroke:#181818;stroke-width:0.5;" x1="2381.1" x2="2487.1" y1="395" y2="395"/><line style="stroke:#181818;stroke-width:0.5;" x1="2381.1" x2="2487.1" y1="403" y2="403"/></g><!--MD5=[d79162130acfae143247b426fdad3a9b]
class MyGame::DTOs::PlayerPosition--><g id="elem_MyGame::DTOs::PlayerPosition"><rect codeLine="5" fill="#F1F1F1" height="48" id="MyGame::DTOs::PlayerPosition" rx="2.5" ry="2.5" style="stroke:#181818;stroke-width:0.5;" width="122" x="2743.1" y="103.5"/><ellipse cx="2758.1" cy="119.5" fill="#ADD1B2" rx="11" ry="11" style="stroke:#181818;stroke-width:1.0;"/><path d="M2760.8656,115.375 Q2761.0219,115.1563 2761.2094,115.0469 Q2761.3969,114.9375 2761.6156,114.9375 Q2761.9906,114.9375 2762.225,115.2031 Q2762.4594,115.4531 2762.4594,116.0625 L2762.4594,117.5156 Q2762.4594,118.125 2762.225,118.3906 Q2761.9906,118.6563 2761.6156,118.6563 Q2761.2719,118.6563 2761.0688,118.4531 Q2760.8656,118.2656 2760.7563,117.75 Q2760.7094,117.3906 2760.5219,117.2031 Q2760.1938,116.8281 2759.5844,116.6094 Q2758.975,116.3906 2758.35,116.3906 Q2757.5844,116.3906 2756.9438,116.7188 Q2756.3188,117.0469 2755.8188,117.7969 Q2755.3344,118.5469 2755.3344,119.5781 L2755.3344,120.6719 Q2755.3344,121.9063 2756.225,122.7344 Q2757.1156,123.5469 2758.7094,123.5469 Q2759.6469,123.5469 2760.3031,123.2969 Q2760.6938,123.1406 2761.1156,122.7031 Q2761.3813,122.4375 2761.5219,122.3594 Q2761.6781,122.2813 2761.8813,122.2813 Q2762.2094,122.2813 2762.4594,122.5469 Q2762.725,122.7969 2762.725,123.1406 Q2762.725,123.4844 2762.3813,123.8906 Q2761.8813,124.4688 2761.0844,124.7969 Q2760.0063,125.25 2758.7094,125.25 Q2757.1938,125.25 2755.9906,124.625 Q2755.0063,124.125 2754.3188,123.0625 Q2753.6313,121.9844 2753.6313,120.7031 L2753.6313,119.5469 Q2753.6313,118.2188 2754.2406,117.0781 Q2754.8656,115.9219 2755.9594,115.3125 Q2757.0531,114.6875 2758.2875,114.6875 Q2759.0219,114.6875 2759.6625,114.8594 Q2760.3188,115.0156 2760.8656,115.375 Z " fill="#000000"/><text fill="#000000" font-family="sans-serif" font-size="14" lengthAdjust="spacing" textLength="90" x="2772.1" y="125.2285">PlayerPosition</text><line style="stroke:#181818;stroke-width:0.5;" x1="2744.1" x2="2864.1" y1="135.5" y2="135.5"/><line style="stroke:#181818;stroke-width:0.5;" x1="2744.1" x2="2864.1" y1="143.5" y2="143.5"/></g><!--MD5=[87ead7f05683c2d30f649174c3d7f1db]
class MyGame::DTOs::Position--><g id="elem_MyGame::DTOs::Position"><rect codeLine="6" fill="#F1F1F1" height="48" id="MyGame::DTOs::Position" rx="2.5" ry="2.5" style="stroke:#181818;stroke-width:0.5;" width="82" x="2900.1" y="103.5"/><ellipse cx="2915.1" cy="119.5" fill="#ADD1B2" rx="11" ry="11" style="stroke:#181818;stroke-width:1.0;"/><path d="M2917.8656,115.375 Q2918.0219,115.1563 2918.2094,115.0469 Q2918.3969,114.9375 2918.6156,114.9375 Q2918.9906,114.9375 2919.225,115.2031 Q2919.4594,115.4531 2919.4594,116.0625 L2919.4594,117.5156 Q2919.4594,118.125 2919.225,118.3906 Q2918.9906,118.6563 2918.6156,118.6563 Q2918.2719,118.6563 2918.0688,118.4531 Q2917.8656,118.2656 2917.7563,117.75 Q2917.7094,117.3906 2917.5219,117.2031 Q2917.1938,116.8281 2916.5844,116.6094 Q2915.975,116.3906 2915.35,116.3906 Q2914.5844,116.3906 2913.9438,116.7188 Q2913.3188,117.0469 2912.8188,117.7969 Q2912.3344,118.5469 2912.3344,119.5781 L2912.3344,120.6719 Q2912.3344,121.9063 2913.225,122.7344 Q2914.1156,123.5469 2915.7094,123.5469 Q2916.6469,123.5469 2917.3031,123.2969 Q2917.6938,123.1406 2918.1156,122.7031 Q2918.3813,122.4375 2918.5219,122.3594 Q2918.6781,122.2813 2918.8813,122.2813 Q2919.2094,122.2813 2919.4594,122.5469 Q2919.725,122.7969 2919.725,123.1406 Q2919.725,123.4844 2919.3813,123.8906 Q2918.8813,124.4688 2918.0844,124.7969 Q2917.0063,125.25 2915.7094,125.25 Q2914.1938,125.25 2912.9906,124.625 Q2912.0063,124.125 2911.3188,123.0625 Q2910.6313,121.9844 2910.6313,120.7031 L2910.6313,119.5469 Q2910.6313,118.2188 2911.2406,117.0781 Q2911.8656,115.9219 2912.9594,115.3125 Q2914.0531,114.6875 2915.2875,114.6875 Q2916.0219,114.6875 2916.6625,114.8594 Q2917.3188,115.0156 2917.8656,115.375 Z " fill="#000000"/><text fill="#000000" font-family="sans-serif" font-size="14" lengthAdjust="spacing" textLength="50" x="2929.1" y="125.2285">Position</text><line style="stroke:#181818;stroke-width:0.5;" x1="2901.1" x2="2981.1" y1="135.5" y2="135.5"/><line style="stroke:#181818;stroke-width:0.5;" x1="2901.1" x2="2981.1" y1="143.5" y2="143.5"/></g><!--MD5=[6b80980e089e0d3b2b80fa81307686d7]
class MyGame::DTOs::User--><g id="elem_MyGame::DTOs::User"><rect codeLine="7" fill="#F1F1F1" height="48" id="MyGame::DTOs::User" rx="2.5" ry="2.5" style="stroke:#181818;stroke-width:0.5;" width="61" x="2773.6" y="363"/><ellipse cx="2788.6" cy="379" fill="#ADD1B2" rx="11" ry="11" style="stroke:#181818;stroke-width:1.0;"/><path d="M2791.3656,374.875 Q2791.5219,374.6563 2791.7094,374.5469 Q2791.8969,374.4375 2792.1156,374.4375 Q2792.4906,374.4375 2792.725,374.7031 Q2792.9594,374.9531 2792.9594,375.5625 L2792.9594,377.0156 Q2792.9594,377.625 2792.725,377.8906 Q2792.4906,378.1563 2792.1156,378.1563 Q2791.7719,378.1563 2791.5688,377.9531 Q2791.3656,377.7656 2791.2563,377.25 Q2791.2094,376.8906 2791.0219,376.7031 Q2790.6938,376.3281 2790.0844,376.1094 Q2789.475,375.8906 2788.85,375.8906 Q2788.0844,375.8906 2787.4438,376.2188 Q2786.8188,376.5469 2786.3188,377.2969 Q2785.8344,378.0469 2785.8344,379.0781 L2785.8344,380.1719 Q2785.8344,381.4063 2786.725,382.2344 Q2787.6156,383.0469 2789.2094,383.0469 Q2790.1469,383.0469 2790.8031,382.7969 Q2791.1938,382.6406 2791.6156,382.2031 Q2791.8813,381.9375 2792.0219,381.8594 Q2792.1781,381.7813 2792.3813,381.7813 Q2792.7094,381.7813 2792.9594,382.0469 Q2793.225,382.2969 2793.225,382.6406 Q2793.225,382.9844 2792.8813,383.3906 Q2792.3813,383.9688 2791.5844,384.2969 Q2790.5063,384.75 2789.2094,384.75 Q2787.6938,384.75 2786.4906,384.125 Q2785.5063,383.625 2784.8188,382.5625 Q2784.1313,381.4844 2784.1313,380.2031 L2784.1313,379.0469 Q2784.1313,377.7188 2784.7406,376.5781 Q2785.3656,375.4219 2786.4594,374.8125 Q2787.5531,374.1875 2788.7875,374.1875 Q2789.5219,374.1875 2790.1625,374.3594 Q2790.8188,374.5156 2791.3656,374.875 Z " fill="#000000"/><text fill="#000000" font-family="sans-serif" font-size="14" lengthAdjust="spacing" textLength="29" x="2802.6" y="384.7285">User</text><line style="stroke:#181818;stroke-width:0.5;" x1="2774.6" x2="2833.6" y1="395" y2="395"/><line style="stroke:#181818;stroke-width:0.5;" x1="2774.6" x2="2833.6" y1="403" y2="403"/></g><!--MD5=[6d4e7685a504e9bacce4d64a723c1a79]
class MyGame::DTOs::UnityLogger--><g id="elem_MyGame::DTOs::UnityLogger"><rect codeLine="8" fill="#F1F1F1" height="48" id="MyGame::DTOs::UnityLogger" rx="2.5" ry="2.5" style="stroke:#181818;stroke-width:0.5;" width="108" x="2870.1" y="363"/><ellipse cx="2885.1" cy="379" fill="#ADD1B2" rx="11" ry="11" style="stroke:#181818;stroke-width:1.0;"/><path d="M2887.8656,374.875 Q2888.0219,374.6563 2888.2094,374.5469 Q2888.3969,374.4375 2888.6156,374.4375 Q2888.9906,374.4375 2889.225,374.7031 Q2889.4594,374.9531 2889.4594,375.5625 L2889.4594,377.0156 Q2889.4594,377.625 2889.225,377.8906 Q2888.9906,378.1563 2888.6156,378.1563 Q2888.2719,378.1563 2888.0688,377.9531 Q2887.8656,377.7656 2887.7563,377.25 Q2887.7094,376.8906 2887.5219,376.7031 Q2887.1938,376.3281 2886.5844,376.1094 Q2885.975,375.8906 2885.35,375.8906 Q2884.5844,375.8906 2883.9438,376.2188 Q2883.3188,376.5469 2882.8188,377.2969 Q2882.3344,378.0469 2882.3344,379.0781 L2882.3344,380.1719 Q2882.3344,381.4063 2883.225,382.2344 Q2884.1156,383.0469 2885.7094,383.0469 Q2886.6469,383.0469 2887.3031,382.7969 Q2887.6938,382.6406 2888.1156,382.2031 Q2888.3813,381.9375 2888.5219,381.8594 Q2888.6781,381.7813 2888.8813,381.7813 Q2889.2094,381.7813 2889.4594,382.0469 Q2889.725,382.2969 2889.725,382.6406 Q2889.725,382.9844 2889.3813,383.3906 Q2888.8813,383.9688 2888.0844,384.2969 Q2887.0063,384.75 2885.7094,384.75 Q2884.1938,384.75 2882.9906,384.125 Q2882.0063,383.625 2881.3188,382.5625 Q2880.6313,381.4844 2880.6313,380.2031 L2880.6313,379.0469 Q2880.6313,377.7188 2881.2406,376.5781 Q2881.8656,375.4219 2882.9594,374.8125 Q2884.0531,374.1875 2885.2875,374.1875 Q2886.0219,374.1875 2886.6625,374.3594 Q2887.3188,374.5156 2887.8656,374.875 Z " fill="#000000"/><text fill="#000000" font-family="sans-serif" font-size="14" lengthAdjust="spacing" textLength="76" x="2899.1" y="384.7285">UnityLogger</text><line style="stroke:#181818;stroke-width:0.5;" x1="2871.1" x2="2977.1" y1="395" y2="395"/><line style="stroke:#181818;stroke-width:0.5;" x1="2871.1" x2="2977.1" y1="403" y2="403"/></g><!--MD5=[454b0cef6490289195c94516069450d7]
class MyGame::NetworkLib::IClient--><g id="elem_MyGame::NetworkLib::IClient"><rect codeLine="65" fill="#F1F1F1" height="188.875" id="MyGame::NetworkLib::IClient" rx="2.5" ry="2.5" style="stroke:#181818;stroke-width:0.5;" width="256" x="903.1" y="292.5"/><ellipse cx="1006.85" cy="308.5" fill="#B4A7E5" rx="11" ry="11" style="stroke:#181818;stroke-width:1.0;"/><path d="M1007.8031,305.1406 L1007.8031,311.7969 L1009.5219,311.7969 Q1010.1312,311.7969 1010.3969,312.0313 Q1010.6625,312.2656 1010.6625,312.6563 Q1010.6625,313.0313 1010.3969,313.2656 Q1010.1312,313.5 1009.5219,313.5 L1004.3812,313.5 Q1003.7719,313.5 1003.5062,313.2656 Q1003.2406,313.0313 1003.2406,312.6406 Q1003.2406,312.2656 1003.5062,312.0313 Q1003.7719,311.7969 1004.3812,311.7969 L1006.1,311.7969 L1006.1,305.1406 L1004.3812,305.1406 Q1003.7719,305.1406 1003.5062,304.9063 Q1003.2406,304.6719 1003.2406,304.2813 Q1003.2406,303.9063 1003.5062,303.6719 Q1003.7719,303.4375 1004.3812,303.4375 L1009.5219,303.4375 Q1010.1312,303.4375 1010.3969,303.6719 Q1010.6625,303.9063 1010.6625,304.2813 Q1010.6625,304.6719 1010.3969,304.9063 Q1010.1312,305.1406 1009.5219,305.1406 L1007.8031,305.1406 Z " fill="#000000"/><text fill="#000000" font-family="sans-serif" font-size="14" font-style="italic" lengthAdjust="spacing" textLength="40" x="1027.35" y="314.2285">IClient</text><line style="stroke:#181818;stroke-width:0.5;" x1="904.1" x2="1158.1" y1="324.5" y2="324.5"/><line style="stroke:#181818;stroke-width:0.5;" x1="904.1" x2="1158.1" y1="332.5" y2="332.5"/><ellipse cx="914.1" cy="346.8047" fill="#84BE84" rx="3" ry="3" style="stroke:#038048;stroke-width:1.0;"/><text fill="#000000" font-family="sans-serif" font-size="14" lengthAdjust="spacing" textLength="120" x="923.1" y="351.0332">bool IsConnected()</text><ellipse cx="914.1" cy="364.4141" fill="#84BE84" rx="3" ry="3" style="stroke:#038048;stroke-width:1.0;"/><text fill="#000000" font-family="sans-serif" font-size="14" lengthAdjust="spacing" textLength="110" x="923.1" y="368.6426">void Disconnect()</text><ellipse cx="914.1" cy="382.0234" fill="#84BE84" rx="3" ry="3" style="stroke:#038048;stroke-width:1.0;"/><text fill="#000000" font-family="sans-serif" font-size="14" lengthAdjust="spacing" textLength="230" x="923.1" y="386.252">async Task SendAsync(byte[] bytes)</text><ellipse cx="914.1" cy="399.6328" fill="#84BE84" rx="3" ry="3" style="stroke:#038048;stroke-width:1.0;"/><text fill="#000000" font-family="sans-serif" font-size="14" lengthAdjust="spacing" textLength="218" x="923.1" y="403.8613">async Task SendAsync(object obj)</text><ellipse cx="914.1" cy="417.2422" fill="#84BE84" rx="3" ry="3" style="stroke:#038048;stroke-width:1.0;"/><text fill="#000000" font-family="sans-serif" font-size="14" lengthAdjust="spacing" textLength="134" x="923.1" y="421.4707">void Send(object obj)</text><ellipse cx="914.1" cy="434.8516" fill="#84BE84" rx="3" ry="3" style="stroke:#038048;stroke-width:1.0;"/><text fill="#000000" font-family="sans-serif" font-size="14" lengthAdjust="spacing" textLength="146" x="923.1" y="439.0801">void Send(byte[] bytes)</text><ellipse cx="914.1" cy="452.4609" fill="#84BE84" rx="3" ry="3" style="stroke:#038048;stroke-width:1.0;"/><text fill="#000000" font-family="sans-serif" font-size="14" lengthAdjust="spacing" textLength="184" x="923.1" y="456.6895">T Deserialize&lt;T&gt;(byte[] data)</text><ellipse cx="914.1" cy="470.0703" fill="#84BE84" rx="3" ry="3" style="stroke:#038048;stroke-width:1.0;"/><text fill="#000000" font-family="sans-serif" font-size="14" lengthAdjust="spacing" textLength="163" x="923.1" y="474.2988">byte[] Serialize(object obj)</text></g><!--MD5=[8d237cb8abf8ebce087451b550c53f28]
class MyGame::NetworkLib::IServer--><g id="elem_MyGame::NetworkLib::IServer"><rect codeLine="75" fill="#F1F1F1" height="83.2188" id="MyGame::NetworkLib::IServer" rx="2.5" ry="2.5" style="stroke:#181818;stroke-width:0.5;" width="153" x="561.6" y="86"/><ellipse cx="611.35" cy="102" fill="#B4A7E5" rx="11" ry="11" style="stroke:#181818;stroke-width:1.0;"/><path d="M612.3031,98.6406 L612.3031,105.2969 L614.0219,105.2969 Q614.6312,105.2969 614.8969,105.5313 Q615.1625,105.7656 615.1625,106.1563 Q615.1625,106.5313 614.8969,106.7656 Q614.6312,107 614.0219,107 L608.8812,107 Q608.2719,107 608.0062,106.7656 Q607.7406,106.5313 607.7406,106.1406 Q607.7406,105.7656 608.0062,105.5313 Q608.2719,105.2969 608.8812,105.2969 L610.6,105.2969 L610.6,98.6406 L608.8812,98.6406 Q608.2719,98.6406 608.0062,98.4063 Q607.7406,98.1719 607.7406,97.7813 Q607.7406,97.4063 608.0062,97.1719 Q608.2719,96.9375 608.8812,96.9375 L614.0219,96.9375 Q614.6312,96.9375 614.8969,97.1719 Q615.1625,97.4063 615.1625,97.7813 Q615.1625,98.1719 614.8969,98.4063 Q614.6312,98.6406 614.0219,98.6406 L612.3031,98.6406 Z " fill="#000000"/><text fill="#000000" font-family="sans-serif" font-size="14" font-style="italic" lengthAdjust="spacing" textLength="45" x="631.85" y="107.7285">IServer</text><line style="stroke:#181818;stroke-width:0.5;" x1="562.6" x2="713.6" y1="118" y2="118"/><line style="stroke:#181818;stroke-width:0.5;" x1="562.6" x2="713.6" y1="126" y2="126"/><ellipse cx="572.6" cy="140.3047" fill="#84BE84" rx="3" ry="3" style="stroke:#038048;stroke-width:1.0;"/><text fill="#000000" font-family="sans-serif" font-size="14" lengthAdjust="spacing" textLength="127" x="581.6" y="144.5332">void UpdateServer()</text><ellipse cx="572.6" cy="157.9141" fill="#84BE84" rx="3" ry="3" style="stroke:#038048;stroke-width:1.0;"/><text fill="#000000" font-family="sans-serif" font-size="14" lengthAdjust="spacing" textLength="102" x="581.6" y="162.1426">void Shutdown()</text></g><!--MD5=[03af805b23938f9671fe055225782574]
class MyGame::NetworkLib::Common::IMatch--><g id="elem_MyGame::NetworkLib::Common::IMatch"><rect codeLine="23" fill="#F1F1F1" height="118.4375" id="MyGame::NetworkLib::Common::IMatch" rx="2.5" ry="2.5" style="stroke:#181818;stroke-width:0.5;" width="231" x="1236.6" y="661.5"/><ellipse cx="1326.35" cy="677.5" fill="#B4A7E5" rx="11" ry="11" style="stroke:#181818;stroke-width:1.0;"/><path d="M1327.3031,674.1406 L1327.3031,680.7969 L1329.0219,680.7969 Q1329.6313,680.7969 1329.8969,681.0313 Q1330.1625,681.2656 1330.1625,681.6563 Q1330.1625,682.0313 1329.8969,682.2656 Q1329.6313,682.5 1329.0219,682.5 L1323.8813,682.5 Q1323.2719,682.5 1323.0063,682.2656 Q1322.7406,682.0313 1322.7406,681.6406 Q1322.7406,681.2656 1323.0063,681.0313 Q1323.2719,680.7969 1323.8813,680.7969 L1325.6,680.7969 L1325.6,674.1406 L1323.8813,674.1406 Q1323.2719,674.1406 1323.0063,673.9063 Q1322.7406,673.6719 1322.7406,673.2813 Q1322.7406,672.9063 1323.0063,672.6719 Q1323.2719,672.4375 1323.8813,672.4375 L1329.0219,672.4375 Q1329.6313,672.4375 1329.8969,672.6719 Q1330.1625,672.9063 1330.1625,673.2813 Q1330.1625,673.6719 1329.8969,673.9063 Q1329.6313,674.1406 1329.0219,674.1406 L1327.3031,674.1406 Z " fill="#000000"/><text fill="#000000" font-family="sans-serif" font-size="14" font-style="italic" lengthAdjust="spacing" textLength="43" x="1346.85" y="683.2285">IMatch</text><line style="stroke:#181818;stroke-width:0.5;" x1="1237.6" x2="1466.6" y1="693.5" y2="693.5"/><line style="stroke:#181818;stroke-width:0.5;" x1="1237.6" x2="1466.6" y1="701.5" y2="701.5"/><ellipse cx="1247.6" cy="715.8047" fill="#84BE84" rx="3" ry="3" style="stroke:#038048;stroke-width:1.0;"/><text fill="#000000" font-family="sans-serif" font-size="14" lengthAdjust="spacing" textLength="178" x="1256.6" y="720.0332">void AddPlayer(Client client)</text><ellipse cx="1247.6" cy="733.4141" fill="#84BE84" rx="3" ry="3" style="stroke:#038048;stroke-width:1.0;"/><text fill="#000000" font-family="sans-serif" font-size="14" lengthAdjust="spacing" textLength="205" x="1256.6" y="737.6426">void RemovePlayer(Client client)</text><ellipse cx="1247.6" cy="751.0234" fill="#84BE84" rx="3" ry="3" style="stroke:#038048;stroke-width:1.0;"/><text fill="#000000" font-family="sans-serif" font-size="14" lengthAdjust="spacing" textLength="135" x="1256.6" y="755.252">Message[] GetState()</text><ellipse cx="1247.6" cy="768.6328" fill="#84BE84" rx="3" ry="3" style="stroke:#038048;stroke-width:1.0;"/><text fill="#000000" font-family="sans-serif" font-size="14" lengthAdjust="spacing" textLength="118" x="1256.6" y="772.8613">void UpdateState()</text></g><!--MD5=[9e8008ba1ea21e8d453a0c71e40a4196]
class MyGame::NetworkLib::Common::DTOs::Authentication--><g id="elem_MyGame::NetworkLib::Common::DTOs::Authentication"><rect codeLine="30" fill="#F1F1F1" height="83.2188" id="MyGame::NetworkLib::Common::DTOs::Authentication" rx="2.5" ry="2.5" style="stroke:#181818;stroke-width:0.5;" width="129" x="1870.6" y="679"/><ellipse cx="1888.75" cy="695" fill="#ADD1B2" rx="11" ry="11" style="stroke:#181818;stroke-width:1.0;"/><path d="M1891.5156,690.875 Q1891.6719,690.6563 1891.8594,690.5469 Q1892.0469,690.4375 1892.2656,690.4375 Q1892.6406,690.4375 1892.875,690.7031 Q1893.1094,690.9531 1893.1094,691.5625 L1893.1094,693.0156 Q1893.1094,693.625 1892.875,693.8906 Q1892.6406,694.1563 1892.2656,694.1563 Q1891.9219,694.1563 1891.7188,693.9531 Q1891.5156,693.7656 1891.4063,693.25 Q1891.3594,692.8906 1891.1719,692.7031 Q1890.8438,692.3281 1890.2344,692.1094 Q1889.625,691.8906 1889,691.8906 Q1888.2344,691.8906 1887.5938,692.2188 Q1886.9688,692.5469 1886.4688,693.2969 Q1885.9844,694.0469 1885.9844,695.0781 L1885.9844,696.1719 Q1885.9844,697.4063 1886.875,698.2344 Q1887.7656,699.0469 1889.3594,699.0469 Q1890.2969,699.0469 1890.9531,698.7969 Q1891.3438,698.6406 1891.7656,698.2031 Q1892.0313,697.9375 1892.1719,697.8594 Q1892.3281,697.7813 1892.5313,697.7813 Q1892.8594,697.7813 1893.1094,698.0469 Q1893.375,698.2969 1893.375,698.6406 Q1893.375,698.9844 1893.0313,699.3906 Q1892.5313,699.9688 1891.7344,700.2969 Q1890.6563,700.75 1889.3594,700.75 Q1887.8438,700.75 1886.6406,700.125 Q1885.6563,699.625 1884.9688,698.5625 Q1884.2813,697.4844 1884.2813,696.2031 L1884.2813,695.0469 Q1884.2813,693.7188 1884.8906,692.5781 Q1885.5156,691.4219 1886.6094,690.8125 Q1887.7031,690.1875 1888.9375,690.1875 Q1889.6719,690.1875 1890.3125,690.3594 Q1890.9688,690.5156 1891.5156,690.875 Z " fill="#000000"/><text fill="#000000" font-family="sans-serif" font-size="14" lengthAdjust="spacing" textLength="90" x="1903.45" y="700.7285">Authentication</text><line style="stroke:#181818;stroke-width:0.5;" x1="1871.6" x2="1998.6" y1="711" y2="711"/><ellipse cx="1881.6" cy="725.3047" fill="none" rx="3" ry="3" style="stroke:#038048;stroke-width:1.0;"/><text fill="#000000" font-family="sans-serif" font-size="14" lengthAdjust="spacing" textLength="103" x="1890.6" y="729.5332">string Username</text><ellipse cx="1881.6" cy="742.9141" fill="none" rx="3" ry="3" style="stroke:#038048;stroke-width:1.0;"/><text fill="#000000" font-family="sans-serif" font-size="14" lengthAdjust="spacing" textLength="100" x="1890.6" y="747.1426">string Password</text><line style="stroke:#181818;stroke-width:0.5;" x1="1871.6" x2="1998.6" y1="754.2188" y2="754.2188"/></g><!--MD5=[573b474aa4ba90820e38ed19b6f0d070]
class MyGame::NetworkLib::Common::DTOs::Message--><g id="elem_MyGame::NetworkLib::Common::DTOs::Message"><rect codeLine="34" fill="#F1F1F1" height="118.4375" id="MyGame::NetworkLib::Common::DTOs::Message" rx="2.5" ry="2.5" style="stroke:#181818;stroke-width:0.5;" width="177" x="1658.6" y="661.5"/><ellipse cx="1714.35" cy="677.5" fill="#ADD1B2" rx="11" ry="11" style="stroke:#181818;stroke-width:1.0;"/><path d="M1717.1156,673.375 Q1717.2719,673.1563 1717.4594,673.0469 Q1717.6469,672.9375 1717.8656,672.9375 Q1718.2406,672.9375 1718.475,673.2031 Q1718.7094,673.4531 1718.7094,674.0625 L1718.7094,675.5156 Q1718.7094,676.125 1718.475,676.3906 Q1718.2406,676.6563 1717.8656,676.6563 Q1717.5219,676.6563 1717.3188,676.4531 Q1717.1156,676.2656 1717.0063,675.75 Q1716.9594,675.3906 1716.7719,675.2031 Q1716.4438,674.8281 1715.8344,674.6094 Q1715.225,674.3906 1714.6,674.3906 Q1713.8344,674.3906 1713.1938,674.7188 Q1712.5688,675.0469 1712.0688,675.7969 Q1711.5844,676.5469 1711.5844,677.5781 L1711.5844,678.6719 Q1711.5844,679.9063 1712.475,680.7344 Q1713.3656,681.5469 1714.9594,681.5469 Q1715.8969,681.5469 1716.5531,681.2969 Q1716.9438,681.1406 1717.3656,680.7031 Q1717.6313,680.4375 1717.7719,680.3594 Q1717.9281,680.2813 1718.1313,680.2813 Q1718.4594,680.2813 1718.7094,680.5469 Q1718.975,680.7969 1718.975,681.1406 Q1718.975,681.4844 1718.6313,681.8906 Q1718.1313,682.4688 1717.3344,682.7969 Q1716.2563,683.25 1714.9594,683.25 Q1713.4438,683.25 1712.2406,682.625 Q1711.2563,682.125 1710.5688,681.0625 Q1709.8813,679.9844 1709.8813,678.7031 L1709.8813,677.5469 Q1709.8813,676.2188 1710.4906,675.0781 Q1711.1156,673.9219 1712.2094,673.3125 Q1713.3031,672.6875 1714.5375,672.6875 Q1715.2719,672.6875 1715.9125,672.8594 Q1716.5688,673.0156 1717.1156,673.375 Z " fill="#000000"/><text fill="#000000" font-family="sans-serif" font-size="14" lengthAdjust="spacing" textLength="57" x="1734.85" y="683.2285">Message</text><line style="stroke:#181818;stroke-width:0.5;" x1="1659.6" x2="1834.6" y1="693.5" y2="693.5"/><ellipse cx="1669.6" cy="707.8047" fill="none" rx="3" ry="3" style="stroke:#038048;stroke-width:1.0;"/><text fill="#000000" font-family="sans-serif" font-size="14" lengthAdjust="spacing" textLength="50" x="1678.6" y="712.0332">string Id</text><ellipse cx="1669.6" cy="725.4141" fill="none" rx="3" ry="3" style="stroke:#038048;stroke-width:1.0;"/><text fill="#000000" font-family="sans-serif" font-size="14" lengthAdjust="spacing" textLength="151" x="1678.6" y="729.6426">MessageType MsgType</text><ellipse cx="1669.6" cy="743.0234" fill="none" rx="3" ry="3" style="stroke:#038048;stroke-width:1.0;"/><text fill="#000000" font-family="sans-serif" font-size="14" lengthAdjust="spacing" textLength="69" x="1678.6" y="747.252">byte[] Data</text><ellipse cx="1669.6" cy="760.6328" fill="none" rx="3" ry="3" style="stroke:#038048;stroke-width:1.0;"/><text fill="#000000" font-family="sans-serif" font-size="14" lengthAdjust="spacing" textLength="93" x="1678.6" y="764.8613">string Callback</text><line style="stroke:#181818;stroke-width:0.5;" x1="1659.6" x2="1834.6" y1="771.9375" y2="771.9375"/></g><!--MD5=[a0fa5166c53d954b37ea6d6a6a19a0a5]
class MyGame::NetworkLib::Common::DTOs::MessageType--><g id="elem_MyGame::NetworkLib::Common::DTOs::MessageType"><rect codeLine="40" fill="#F1F1F1" height="224.0938" id="MyGame::NetworkLib::Common::DTOs::MessageType" rx="2.5" ry="2.5" style="stroke:#181818;stroke-width:0.5;" width="121" x="1502.6" y="608.5"/><ellipse cx="1517.6" cy="624.5" fill="#EB937F" rx="11" ry="11" style="stroke:#181818;stroke-width:1.0;"/><path d="M1516.4594,625.2969 L1516.4594,627.7969 L1520.7875,627.7969 L1520.7875,626.875 Q1520.7875,626.2656 1521.0219,626 Q1521.2719,625.7344 1521.6469,625.7344 Q1522.0219,625.7344 1522.2563,626 Q1522.4906,626.2656 1522.4906,626.875 L1522.4906,629.5 L1514.4906,629.5 Q1513.8656,629.5 1513.6,629.2656 Q1513.35,629.0313 1513.35,628.6406 Q1513.35,628.2656 1513.6156,628.0313 Q1513.8813,627.7969 1514.4906,627.7969 L1514.7563,627.7969 L1514.7563,621.1406 L1514.4906,621.1406 Q1513.8656,621.1406 1513.6,620.9063 Q1513.35,620.6719 1513.35,620.2813 Q1513.35,619.9063 1513.6,619.6719 Q1513.8656,619.4375 1514.4906,619.4375 L1522.1156,619.4375 L1522.1156,622.0313 Q1522.1156,622.6406 1521.8813,622.9063 Q1521.6625,623.1563 1521.2719,623.1563 Q1520.8969,623.1563 1520.6625,622.9063 Q1520.4281,622.6406 1520.4281,622.0313 L1520.4281,621.1406 L1516.4594,621.1406 L1516.4594,623.5938 L1517.9438,623.5938 Q1517.9438,622.9375 1518.0688,622.75 Q1518.3344,622.3438 1518.8031,622.3438 Q1519.1781,622.3438 1519.4125,622.6094 Q1519.6469,622.8594 1519.6469,623.4688 L1519.6469,625.4375 Q1519.6469,625.9844 1519.5219,626.1719 Q1519.2563,626.5625 1518.8031,626.5625 Q1518.3344,626.5625 1518.0688,626.1563 Q1517.9438,625.9688 1517.9438,625.2969 L1516.4594,625.2969 Z " fill="#000000"/><text fill="#000000" font-family="sans-serif" font-size="14" lengthAdjust="spacing" textLength="89" x="1531.6" y="630.2285">MessageType</text><line style="stroke:#181818;stroke-width:0.5;" x1="1503.6" x2="1622.6" y1="640.5" y2="640.5"/><text fill="#000000" font-family="sans-serif" font-size="14" lengthAdjust="spacing" textLength="33" x="1508.6" y="659.0332">User,</text><text fill="#000000" font-family="sans-serif" font-size="14" lengthAdjust="spacing" textLength="94" x="1508.6" y="676.6426">PlayerPosition,</text><text fill="#000000" font-family="sans-serif" font-size="14" lengthAdjust="spacing" textLength="41" x="1508.6" y="694.252">Shoot,</text><text fill="#000000" font-family="sans-serif" font-size="14" lengthAdjust="spacing" textLength="44" x="1508.6" y="711.8613">Player,</text><text fill="#000000" font-family="sans-serif" font-size="14" lengthAdjust="spacing" textLength="49" x="1508.6" y="729.4707">Update,</text><text fill="#000000" font-family="sans-serif" font-size="14" lengthAdjust="spacing" textLength="61" x="1508.6" y="747.0801">Message,</text><text fill="#000000" font-family="sans-serif" font-size="14" lengthAdjust="spacing" textLength="39" x="1508.6" y="764.6895">Login,</text><text fill="#000000" font-family="sans-serif" font-size="14" lengthAdjust="spacing" textLength="72" x="1508.6" y="782.2988">JoinQueue,</text><text fill="#000000" font-family="sans-serif" font-size="14" lengthAdjust="spacing" textLength="103" x="1508.6" y="799.9082">LoginResponse,</text><text fill="#000000" font-family="sans-serif" font-size="14" lengthAdjust="spacing" textLength="79" x="1508.6" y="817.5176">MatchJoined</text><line style="stroke:#181818;stroke-width:0.5;" x1="1503.6" x2="1622.6" y1="824.5938" y2="824.5938"/></g><!--MD5=[22d697964601021bee16f10d3fa5b559]
class MyGame::NetworkLib::Common::Logger::ILogNetwork--><g id="elem_MyGame::NetworkLib::Common::Logger::ILogNetwork"><rect codeLine="54" fill="#F1F1F1" height="100.8281" id="MyGame::NetworkLib::Common::Logger::ILogNetwork" rx="2.5" ry="2.5" style="stroke:#181818;stroke-width:0.5;" width="243" x="2056.6" y="670"/><ellipse cx="2133.85" cy="686" fill="#B4A7E5" rx="11" ry="11" style="stroke:#181818;stroke-width:1.0;"/><path d="M2134.8031,682.6406 L2134.8031,689.2969 L2136.5219,689.2969 Q2137.1313,689.2969 2137.3969,689.5313 Q2137.6625,689.7656 2137.6625,690.1563 Q2137.6625,690.5313 2137.3969,690.7656 Q2137.1313,691 2136.5219,691 L2131.3813,691 Q2130.7719,691 2130.5063,690.7656 Q2130.2406,690.5313 2130.2406,690.1406 Q2130.2406,689.7656 2130.5063,689.5313 Q2130.7719,689.2969 2131.3813,689.2969 L2133.1,689.2969 L2133.1,682.6406 L2131.3813,682.6406 Q2130.7719,682.6406 2130.5063,682.4063 Q2130.2406,682.1719 2130.2406,681.7813 Q2130.2406,681.4063 2130.5063,681.1719 Q2130.7719,680.9375 2131.3813,680.9375 L2136.5219,680.9375 Q2137.1313,680.9375 2137.3969,681.1719 Q2137.6625,681.4063 2137.6625,681.7813 Q2137.6625,682.1719 2137.3969,682.4063 Q2137.1313,682.6406 2136.5219,682.6406 L2134.8031,682.6406 Z " fill="#000000"/><text fill="#000000" font-family="sans-serif" font-size="14" font-style="italic" lengthAdjust="spacing" textLength="80" x="2154.35" y="691.7285">ILogNetwork</text><line style="stroke:#181818;stroke-width:0.5;" x1="2057.6" x2="2298.6" y1="702" y2="702"/><line style="stroke:#181818;stroke-width:0.5;" x1="2057.6" x2="2298.6" y1="710" y2="710"/><ellipse cx="2067.6" cy="724.3047" fill="#84BE84" rx="3" ry="3" style="stroke:#038048;stroke-width:1.0;"/><text fill="#000000" font-family="sans-serif" font-size="14" lengthAdjust="spacing" textLength="164" x="2076.6" y="728.5332">void Log(string message);</text><ellipse cx="2067.6" cy="741.9141" fill="#84BE84" rx="3" ry="3" style="stroke:#038048;stroke-width:1.0;"/><text fill="#000000" font-family="sans-serif" font-size="14" lengthAdjust="spacing" textLength="217" x="2076.6" y="746.1426">void LogWarning(string message);</text><ellipse cx="2067.6" cy="759.5234" fill="#84BE84" rx="3" ry="3" style="stroke:#038048;stroke-width:1.0;"/><text fill="#000000" font-family="sans-serif" font-size="14" lengthAdjust="spacing" textLength="196" x="2076.6" y="763.752">void LogError(string message);</text></g><!--MD5=[e445d8469d1e82822d7601e4c03f1a68]
class MyGame::NetworkLib::Common::Logger::DefaultLogger--><g id="elem_MyGame::NetworkLib::Common::Logger::DefaultLogger"><rect codeLine="59" fill="#F1F1F1" height="48" id="MyGame::NetworkLib::Common::Logger::DefaultLogger" rx="2.5" ry="2.5" style="stroke:#181818;stroke-width:0.5;" width="122" x="2117.1" y="983"/><ellipse cx="2132.1" cy="999" fill="#ADD1B2" rx="11" ry="11" style="stroke:#181818;stroke-width:1.0;"/><path d="M2134.8656,994.875 Q2135.0219,994.6563 2135.2094,994.5469 Q2135.3969,994.4375 2135.6156,994.4375 Q2135.9906,994.4375 2136.225,994.7031 Q2136.4594,994.9531 2136.4594,995.5625 L2136.4594,997.0156 Q2136.4594,997.625 2136.225,997.8906 Q2135.9906,998.1563 2135.6156,998.1563 Q2135.2719,998.1563 2135.0688,997.9531 Q2134.8656,997.7656 2134.7563,997.25 Q2134.7094,996.8906 2134.5219,996.7031 Q2134.1938,996.3281 2133.5844,996.1094 Q2132.975,995.8906 2132.35,995.8906 Q2131.5844,995.8906 2130.9438,996.2188 Q2130.3188,996.5469 2129.8188,997.2969 Q2129.3344,998.0469 2129.3344,999.0781 L2129.3344,1000.1719 Q2129.3344,1001.4063 2130.225,1002.2344 Q2131.1156,1003.0469 2132.7094,1003.0469 Q2133.6469,1003.0469 2134.3031,1002.7969 Q2134.6938,1002.6406 2135.1156,1002.2031 Q2135.3813,1001.9375 2135.5219,1001.8594 Q2135.6781,1001.7813 2135.8813,1001.7813 Q2136.2094,1001.7813 2136.4594,1002.0469 Q2136.725,1002.2969 2136.725,1002.6406 Q2136.725,1002.9844 2136.3813,1003.3906 Q2135.8813,1003.9688 2135.0844,1004.2969 Q2134.0063,1004.75 2132.7094,1004.75 Q2131.1938,1004.75 2129.9906,1004.125 Q2129.0063,1003.625 2128.3188,1002.5625 Q2127.6313,1001.4844 2127.6313,1000.2031 L2127.6313,999.0469 Q2127.6313,997.7188 2128.2406,996.5781 Q2128.8656,995.4219 2129.9594,994.8125 Q2131.0531,994.1875 2132.2875,994.1875 Q2133.0219,994.1875 2133.6625,994.3594 Q2134.3188,994.5156 2134.8656,994.875 Z " fill="#000000"/><text fill="#000000" font-family="sans-serif" font-size="14" lengthAdjust="spacing" textLength="90" x="2146.1" y="1004.7285">DefaultLogger</text><line style="stroke:#181818;stroke-width:0.5;" x1="2118.1" x2="2238.1" y1="1015" y2="1015"/><line style="stroke:#181818;stroke-width:0.5;" x1="2118.1" x2="2238.1" y1="1023" y2="1023"/></g><!--MD5=[3329eb733b1fb0c9e2b37812bd2c6503]
class MyGame::NetworkLib::GameClient::Client--><g id="elem_MyGame::NetworkLib::GameClient::Client"><rect codeLine="81" fill="#F1F1F1" height="188.875" id="MyGame::NetworkLib::GameClient::Client" rx="2.5" ry="2.5" style="stroke:#181818;stroke-width:0.5;" width="285" x="888.6" y="626"/><ellipse cx="1008.85" cy="642" fill="#ADD1B2" rx="11" ry="11" style="stroke:#181818;stroke-width:1.0;"/><path d="M1011.6156,637.875 Q1011.7719,637.6563 1011.9594,637.5469 Q1012.1469,637.4375 1012.3656,637.4375 Q1012.7406,637.4375 1012.975,637.7031 Q1013.2094,637.9531 1013.2094,638.5625 L1013.2094,640.0156 Q1013.2094,640.625 1012.975,640.8906 Q1012.7406,641.1563 1012.3656,641.1563 Q1012.0219,641.1563 1011.8187,640.9531 Q1011.6156,640.7656 1011.5062,640.25 Q1011.4594,639.8906 1011.2719,639.7031 Q1010.9437,639.3281 1010.3344,639.1094 Q1009.725,638.8906 1009.1,638.8906 Q1008.3344,638.8906 1007.6937,639.2188 Q1007.0687,639.5469 1006.5687,640.2969 Q1006.0844,641.0469 1006.0844,642.0781 L1006.0844,643.1719 Q1006.0844,644.4063 1006.975,645.2344 Q1007.8656,646.0469 1009.4594,646.0469 Q1010.3969,646.0469 1011.0531,645.7969 Q1011.4437,645.6406 1011.8656,645.2031 Q1012.1312,644.9375 1012.2719,644.8594 Q1012.4281,644.7813 1012.6312,644.7813 Q1012.9594,644.7813 1013.2094,645.0469 Q1013.475,645.2969 1013.475,645.6406 Q1013.475,645.9844 1013.1312,646.3906 Q1012.6312,646.9688 1011.8344,647.2969 Q1010.7562,647.75 1009.4594,647.75 Q1007.9437,647.75 1006.7406,647.125 Q1005.7562,646.625 1005.0687,645.5625 Q1004.3812,644.4844 1004.3812,643.2031 L1004.3812,642.0469 Q1004.3812,640.7188 1004.9906,639.5781 Q1005.6156,638.4219 1006.7094,637.8125 Q1007.8031,637.1875 1009.0375,637.1875 Q1009.7719,637.1875 1010.4125,637.3594 Q1011.0687,637.5156 1011.6156,637.875 Z " fill="#000000"/><text fill="#000000" font-family="sans-serif" font-size="14" lengthAdjust="spacing" textLength="36" x="1029.35" y="647.7285">Client</text><line style="stroke:#181818;stroke-width:0.5;" x1="889.6" x2="1172.6" y1="658" y2="658"/><ellipse cx="899.6" cy="672.3047" fill="none" rx="3" ry="3" style="stroke:#038048;stroke-width:1.0;"/><text fill="#000000" font-family="sans-serif" font-size="14" lengthAdjust="spacing" textLength="92" x="908.6" y="676.5332">TcpClient Tcp;</text><ellipse cx="899.6" cy="689.9141" fill="none" rx="3" ry="3" style="stroke:#038048;stroke-width:1.0;"/><text fill="#000000" font-family="sans-serif" font-size="14" lengthAdjust="spacing" textLength="157" x="908.6" y="694.1426">Network NetworkHandler;</text><rect fill="none" height="6" style="stroke:#C82930;stroke-width:1.0;" width="6" x="896.6" y="704.5234"/><text fill="#000000" font-family="sans-serif" font-size="14" lengthAdjust="spacing" textLength="175" x="908.6" y="711.752">NetworkStream _tcpStream;</text><rect fill="none" height="6" style="stroke:#C82930;stroke-width:1.0;" width="6" x="896.6" y="722.1328"/><text fill="#000000" font-family="sans-serif" font-size="14" lengthAdjust="spacing" textLength="164" x="908.6" y="729.3613">byte[] _TcpReceiveBuffer;</text><rect fill="none" height="6" style="stroke:#C82930;stroke-width:1.0;" width="6" x="896.6" y="739.7422"/><text fill="#000000" font-family="sans-serif" font-size="14" lengthAdjust="spacing" textLength="131" x="908.6" y="746.9707">BinaryFormatter _br;</text><ellipse cx="899.6" cy="760.3516" fill="none" rx="3" ry="3" style="stroke:#038048;stroke-width:1.0;"/><text fill="#000000" font-family="sans-serif" font-size="14" lengthAdjust="spacing" text-decoration="underline" textLength="105" x="908.6" y="764.5801">ILogNetwork Log</text><line style="stroke:#181818;stroke-width:0.5;" x1="889.6" x2="1172.6" y1="771.6563" y2="771.6563"/><ellipse cx="899.6" cy="785.9609" fill="#84BE84" rx="3" ry="3" style="stroke:#038048;stroke-width:1.0;"/><text fill="#000000" font-family="sans-serif" font-size="14" lengthAdjust="spacing" textLength="259" x="908.6" y="790.1895">Client(ILogNetwork log, TcpClient socket)</text><rect fill="#F24D5C" height="6" style="stroke:#C82930;stroke-width:1.0;" width="6" x="896.6" y="800.5703"/><text fill="#000000" font-family="sans-serif" font-size="14" lengthAdjust="spacing" textLength="243" x="908.6" y="807.7988">void RecieveCallback(IAsyncResult ar)</text></g><!--MD5=[dfa26ae0f650dc0fd6f0a3635d3517af]
class MyGame::NetworkLib::GameClient::Network--><g id="elem_MyGame::NetworkLib::GameClient::Network"><rect codeLine="91" fill="#F1F1F1" height="188.875" id="MyGame::NetworkLib::GameClient::Network" rx="2.5" ry="2.5" style="stroke:#181818;stroke-width:0.5;" width="294" x="886.1" y="912.5"/><ellipse cx="1003.85" cy="928.5" fill="#ADD1B2" rx="11" ry="11" style="stroke:#181818;stroke-width:1.0;"/><path d="M1006.6156,924.375 Q1006.7719,924.1563 1006.9594,924.0469 Q1007.1469,923.9375 1007.3656,923.9375 Q1007.7406,923.9375 1007.975,924.2031 Q1008.2094,924.4531 1008.2094,925.0625 L1008.2094,926.5156 Q1008.2094,927.125 1007.975,927.3906 Q1007.7406,927.6563 1007.3656,927.6563 Q1007.0219,927.6563 1006.8187,927.4531 Q1006.6156,927.2656 1006.5062,926.75 Q1006.4594,926.3906 1006.2719,926.2031 Q1005.9437,925.8281 1005.3344,925.6094 Q1004.725,925.3906 1004.1,925.3906 Q1003.3344,925.3906 1002.6937,925.7188 Q1002.0687,926.0469 1001.5687,926.7969 Q1001.0844,927.5469 1001.0844,928.5781 L1001.0844,929.6719 Q1001.0844,930.9063 1001.975,931.7344 Q1002.8656,932.5469 1004.4594,932.5469 Q1005.3969,932.5469 1006.0531,932.2969 Q1006.4437,932.1406 1006.8656,931.7031 Q1007.1312,931.4375 1007.2719,931.3594 Q1007.4281,931.2813 1007.6312,931.2813 Q1007.9594,931.2813 1008.2094,931.5469 Q1008.475,931.7969 1008.475,932.1406 Q1008.475,932.4844 1008.1312,932.8906 Q1007.6312,933.4688 1006.8344,933.7969 Q1005.7562,934.25 1004.4594,934.25 Q1002.9437,934.25 1001.7406,933.625 Q1000.7562,933.125 1000.0687,932.0625 Q999.3812,930.9844 999.3812,929.7031 L999.3812,928.5469 Q999.3812,927.2188 999.9906,926.0781 Q1000.6156,924.9219 1001.7094,924.3125 Q1002.8031,923.6875 1004.0375,923.6875 Q1004.7719,923.6875 1005.4125,923.8594 Q1006.0687,924.0156 1006.6156,924.375 Z " fill="#000000"/><text fill="#000000" font-family="sans-serif" font-size="14" lengthAdjust="spacing" textLength="50" x="1024.35" y="934.2285">Network</text><line style="stroke:#181818;stroke-width:0.5;" x1="887.1" x2="1179.1" y1="944.5" y2="944.5"/><ellipse cx="897.1" cy="958.8047" fill="none" rx="3" ry="3" style="stroke:#038048;stroke-width:1.0;"/><text fill="#000000" font-family="sans-serif" font-size="14" lengthAdjust="spacing" textLength="76" x="906.1" y="963.0332">Client Client</text><ellipse cx="897.1" cy="976.4141" fill="none" rx="3" ry="3" style="stroke:#038048;stroke-width:1.0;"/><text fill="#000000" font-family="sans-serif" font-size="14" lengthAdjust="spacing" textLength="161" x="906.1" y="980.6426">Authentication Auth = null</text><ellipse cx="897.1" cy="994.0234" fill="none" rx="3" ry="3" style="stroke:#038048;stroke-width:1.0;"/><text fill="#000000" font-family="sans-serif" font-size="14" lengthAdjust="spacing" textLength="126" x="906.1" y="998.252">bool InGame = false</text><ellipse cx="897.1" cy="1011.6328" fill="none" rx="3" ry="3" style="stroke:#038048;stroke-width:1.0;"/><text fill="#000000" font-family="sans-serif" font-size="14" lengthAdjust="spacing" textLength="131" x="906.1" y="1015.8613">bool InQueue = false</text><rect fill="none" height="6" style="stroke:#C82930;stroke-width:1.0;" width="6" x="894.1" y="1026.2422"/><text fill="#000000" font-family="sans-serif" font-size="14" lengthAdjust="spacing" textLength="268" x="906.1" y="1033.4707">ConcurrentQueue&lt;Message&gt; _msgQueue</text><line style="stroke:#181818;stroke-width:0.5;" x1="887.1" x2="1179.1" y1="1040.5469" y2="1040.5469"/><ellipse cx="897.1" cy="1054.8516" fill="#84BE84" rx="3" ry="3" style="stroke:#038048;stroke-width:1.0;"/><text fill="#000000" font-family="sans-serif" font-size="14" lengthAdjust="spacing" textLength="133" x="906.1" y="1059.0801">Network(Client client)</text><ellipse cx="897.1" cy="1072.4609" fill="#84BE84" rx="3" ry="3" style="stroke:#038048;stroke-width:1.0;"/><text fill="#000000" font-family="sans-serif" font-size="14" lengthAdjust="spacing" textLength="184" x="906.1" y="1076.6895">void Enqueue(Message msg)</text><ellipse cx="897.1" cy="1090.0703" fill="#84BE84" rx="3" ry="3" style="stroke:#038048;stroke-width:1.0;"/><text fill="#000000" font-family="sans-serif" font-size="14" lengthAdjust="spacing" textLength="231" x="906.1" y="1094.2988">bool TryDequeue(out Message msg)</text></g><!--MD5=[08ee0e4c2672e7777616b1e041c768ee]
class MyGame::NetworkLib::GameServer::Server--><g id="elem_MyGame::NetworkLib::GameServer::Server"><rect codeLine="103" fill="#F1F1F1" height="188.875" id="MyGame::NetworkLib::GameServer::Server" rx="2.5" ry="2.5" style="stroke:#181818;stroke-width:0.5;" width="289" x="493.6" y="292.5"/><ellipse cx="612.85" cy="308.5" fill="#ADD1B2" rx="11" ry="11" style="stroke:#181818;stroke-width:1.0;"/><path d="M615.6156,304.375 Q615.7719,304.1563 615.9594,304.0469 Q616.1469,303.9375 616.3656,303.9375 Q616.7406,303.9375 616.975,304.2031 Q617.2094,304.4531 617.2094,305.0625 L617.2094,306.5156 Q617.2094,307.125 616.975,307.3906 Q616.7406,307.6563 616.3656,307.6563 Q616.0219,307.6563 615.8188,307.4531 Q615.6156,307.2656 615.5063,306.75 Q615.4594,306.3906 615.2719,306.2031 Q614.9438,305.8281 614.3344,305.6094 Q613.725,305.3906 613.1,305.3906 Q612.3344,305.3906 611.6938,305.7188 Q611.0688,306.0469 610.5688,306.7969 Q610.0844,307.5469 610.0844,308.5781 L610.0844,309.6719 Q610.0844,310.9063 610.975,311.7344 Q611.8656,312.5469 613.4594,312.5469 Q614.3969,312.5469 615.0531,312.2969 Q615.4438,312.1406 615.8656,311.7031 Q616.1313,311.4375 616.2719,311.3594 Q616.4281,311.2813 616.6313,311.2813 Q616.9594,311.2813 617.2094,311.5469 Q617.475,311.7969 617.475,312.1406 Q617.475,312.4844 617.1313,312.8906 Q616.6313,313.4688 615.8344,313.7969 Q614.7563,314.25 613.4594,314.25 Q611.9438,314.25 610.7406,313.625 Q609.7563,313.125 609.0688,312.0625 Q608.3813,310.9844 608.3813,309.7031 L608.3813,308.5469 Q608.3813,307.2188 608.9906,306.0781 Q609.6156,304.9219 610.7094,304.3125 Q611.8031,303.6875 613.0375,303.6875 Q613.7719,303.6875 614.4125,303.8594 Q615.0688,304.0156 615.6156,304.375 Z " fill="#000000"/><text fill="#000000" font-family="sans-serif" font-size="14" lengthAdjust="spacing" textLength="42" x="633.35" y="314.2285">Server</text><line style="stroke:#181818;stroke-width:0.5;" x1="494.6" x2="781.6" y1="324.5" y2="324.5"/><ellipse cx="504.6" cy="338.8047" fill="none" rx="3" ry="3" style="stroke:#038048;stroke-width:1.0;"/><text fill="#000000" font-family="sans-serif" font-size="14" lengthAdjust="spacing" textLength="45" x="513.6" y="343.0332">int Port</text><ellipse cx="504.6" cy="356.4141" fill="none" rx="3" ry="3" style="stroke:#038048;stroke-width:1.0;"/><text fill="#000000" font-family="sans-serif" font-size="14" lengthAdjust="spacing" textLength="158" x="513.6" y="360.6426">TcpListener TCPListener</text><ellipse cx="504.6" cy="374.0234" fill="none" rx="3" ry="3" style="stroke:#038048;stroke-width:1.0;"/><text fill="#000000" font-family="sans-serif" font-size="14" lengthAdjust="spacing" textLength="121" x="513.6" y="378.252">List&lt;Client&gt; Clients</text><ellipse cx="504.6" cy="391.6328" fill="none" rx="3" ry="3" style="stroke:#038048;stroke-width:1.0;"/><text fill="#000000" font-family="sans-serif" font-size="14" lengthAdjust="spacing" textLength="170" x="513.6" y="395.8613">MatchMaking MatchMaking</text><ellipse cx="504.6" cy="409.2422" fill="none" rx="3" ry="3" style="stroke:#038048;stroke-width:1.0;"/><text fill="#000000" font-family="sans-serif" font-size="14" lengthAdjust="spacing" text-decoration="underline" textLength="105" x="513.6" y="413.4707">ILogNetwork Log</text><line style="stroke:#181818;stroke-width:0.5;" x1="494.6" x2="781.6" y1="420.5469" y2="420.5469"/><ellipse cx="504.6" cy="434.8516" fill="#84BE84" rx="3" ry="3" style="stroke:#038048;stroke-width:1.0;"/><text fill="#000000" font-family="sans-serif" font-size="14" lengthAdjust="spacing" textLength="204" x="513.6" y="439.0801">Server(ILogNetwork log, int port)</text><rect fill="#F24D5C" height="6" style="stroke:#C82930;stroke-width:1.0;" width="6" x="501.6" y="449.4609"/><text fill="#000000" font-family="sans-serif" font-size="14" lengthAdjust="spacing" textLength="263" x="513.6" y="456.6895">void TCPAcceptCallback(IAsyncResult ar)</text><rect fill="#F24D5C" height="6" style="stroke:#C82930;stroke-width:1.0;" width="6" x="501.6" y="467.0703"/><text fill="#000000" font-family="sans-serif" font-size="14" lengthAdjust="spacing" textLength="166" x="513.6" y="474.2988">void CheckClientQueues()</text></g><!--MD5=[a7519482796c15b4ea59cab9f0c0de3a]
class MyGame::NetworkLib::GameServer::Match--><g id="elem_MyGame::NetworkLib::GameServer::Match"><rect codeLine="113" fill="#F1F1F1" height="83.2188" id="MyGame::NetworkLib::GameServer::Match" rx="2.5" ry="2.5" style="stroke:#181818;stroke-width:0.5;" width="384" x="446.1" y="965.5"/><ellipse cx="614.85" cy="981.5" fill="#ADD1B2" rx="11" ry="11" style="stroke:#181818;stroke-width:1.0;"/><path d="M617.6156,977.375 Q617.7719,977.1563 617.9594,977.0469 Q618.1469,976.9375 618.3656,976.9375 Q618.7406,976.9375 618.975,977.2031 Q619.2094,977.4531 619.2094,978.0625 L619.2094,979.5156 Q619.2094,980.125 618.975,980.3906 Q618.7406,980.6563 618.3656,980.6563 Q618.0219,980.6563 617.8188,980.4531 Q617.6156,980.2656 617.5063,979.75 Q617.4594,979.3906 617.2719,979.2031 Q616.9438,978.8281 616.3344,978.6094 Q615.725,978.3906 615.1,978.3906 Q614.3344,978.3906 613.6938,978.7188 Q613.0688,979.0469 612.5688,979.7969 Q612.0844,980.5469 612.0844,981.5781 L612.0844,982.6719 Q612.0844,983.9063 612.975,984.7344 Q613.8656,985.5469 615.4594,985.5469 Q616.3969,985.5469 617.0531,985.2969 Q617.4438,985.1406 617.8656,984.7031 Q618.1313,984.4375 618.2719,984.3594 Q618.4281,984.2813 618.6313,984.2813 Q618.9594,984.2813 619.2094,984.5469 Q619.475,984.7969 619.475,985.1406 Q619.475,985.4844 619.1313,985.8906 Q618.6313,986.4688 617.8344,986.7969 Q616.7563,987.25 615.4594,987.25 Q613.9438,987.25 612.7406,986.625 Q611.7563,986.125 611.0688,985.0625 Q610.3813,983.9844 610.3813,982.7031 L610.3813,981.5469 Q610.3813,980.2188 610.9906,979.0781 Q611.6156,977.9219 612.7094,977.3125 Q613.8031,976.6875 615.0375,976.6875 Q615.7719,976.6875 616.4125,976.8594 Q617.0688,977.0156 617.6156,977.375 Z " fill="#000000"/><text fill="#000000" font-family="sans-serif" font-size="14" lengthAdjust="spacing" textLength="38" x="635.35" y="987.2285">Match</text><line style="stroke:#181818;stroke-width:0.5;" x1="447.1" x2="829.1" y1="997.5" y2="997.5"/><ellipse cx="457.1" cy="1011.8047" fill="none" rx="3" ry="3" style="stroke:#038048;stroke-width:1.0;"/><text fill="#000000" font-family="sans-serif" font-size="14" lengthAdjust="spacing" textLength="121" x="466.1" y="1016.0332">List&lt;Client&gt; Clients</text><rect fill="none" height="6" style="stroke:#C82930;stroke-width:1.0;" width="6" x="454.1" y="1026.4141"/><text fill="#000000" font-family="sans-serif" font-size="14" lengthAdjust="spacing" textLength="358" x="466.1" y="1033.6426">ConcurrentDictionary&lt;string, Message&gt; _playerPositions</text><line style="stroke:#181818;stroke-width:0.5;" x1="447.1" x2="829.1" y1="1040.7188" y2="1040.7188"/></g><!--MD5=[304358b72e3707956a7a96ba3a92b0b9]
class MyGame::NetworkLib::GameServer::MatchMaking--><g id="elem_MyGame::NetworkLib::GameServer::MatchMaking"><rect codeLine="117" fill="#F1F1F1" height="100.8281" id="MyGame::NetworkLib::GameServer::MatchMaking" rx="2.5" ry="2.5" style="stroke:#181818;stroke-width:0.5;" width="164" x="556.1" y="670"/><ellipse cx="593.15" cy="686" fill="#ADD1B2" rx="11" ry="11" style="stroke:#181818;stroke-width:1.0;"/><path d="M595.9156,681.875 Q596.0719,681.6563 596.2594,681.5469 Q596.4469,681.4375 596.6656,681.4375 Q597.0406,681.4375 597.275,681.7031 Q597.5094,681.9531 597.5094,682.5625 L597.5094,684.0156 Q597.5094,684.625 597.275,684.8906 Q597.0406,685.1563 596.6656,685.1563 Q596.3219,685.1563 596.1187,684.9531 Q595.9156,684.7656 595.8062,684.25 Q595.7594,683.8906 595.5719,683.7031 Q595.2437,683.3281 594.6344,683.1094 Q594.025,682.8906 593.4,682.8906 Q592.6344,682.8906 591.9937,683.2188 Q591.3687,683.5469 590.8687,684.2969 Q590.3844,685.0469 590.3844,686.0781 L590.3844,687.1719 Q590.3844,688.4063 591.275,689.2344 Q592.1656,690.0469 593.7594,690.0469 Q594.6969,690.0469 595.3531,689.7969 Q595.7437,689.6406 596.1656,689.2031 Q596.4312,688.9375 596.5719,688.8594 Q596.7281,688.7813 596.9312,688.7813 Q597.2594,688.7813 597.5094,689.0469 Q597.775,689.2969 597.775,689.6406 Q597.775,689.9844 597.4312,690.3906 Q596.9312,690.9688 596.1344,691.2969 Q595.0562,691.75 593.7594,691.75 Q592.2437,691.75 591.0406,691.125 Q590.0562,690.625 589.3687,689.5625 Q588.6812,688.4844 588.6812,687.2031 L588.6812,686.0469 Q588.6812,684.7188 589.2906,683.5781 Q589.9156,682.4219 591.0094,681.8125 Q592.1031,681.1875 593.3375,681.1875 Q594.0719,681.1875 594.7125,681.3594 Q595.3687,681.5156 595.9156,681.875 Z " fill="#000000"/><text fill="#000000" font-family="sans-serif" font-size="14" lengthAdjust="spacing" textLength="83" x="612.05" y="691.7285">MatchMaking</text><line style="stroke:#181818;stroke-width:0.5;" x1="557.1" x2="719.1" y1="702" y2="702"/><ellipse cx="567.1" cy="716.3047" fill="none" rx="3" ry="3" style="stroke:#038048;stroke-width:1.0;"/><text fill="#000000" font-family="sans-serif" font-size="14" lengthAdjust="spacing" textLength="133" x="576.1" y="720.5332">List&lt;Match&gt; Matches</text><line style="stroke:#181818;stroke-width:0.5;" x1="557.1" x2="719.1" y1="727.6094" y2="727.6094"/><ellipse cx="567.1" cy="741.9141" fill="#84BE84" rx="3" ry="3" style="stroke:#038048;stroke-width:1.0;"/><text fill="#000000" font-family="sans-serif" font-size="14" lengthAdjust="spacing" textLength="138" x="576.1" y="746.1426">void UpdateMatches()</text><ellipse cx="567.1" cy="759.5234" fill="#84BE84" rx="3" ry="3" style="stroke:#038048;stroke-width:1.0;"/><text fill="#000000" font-family="sans-serif" font-size="14" lengthAdjust="spacing" textLength="138" x="576.1" y="763.752">void Join(Client client)</text></g><!--MD5=[c969d6af42d9bd4dc7796684dc901d78]
class MyGame::Client::ClientInit--><g id="elem_MyGame::Client::ClientInit"><rect codeLine="135" fill="#F1F1F1" height="164.3594" id="MyGame::Client::ClientInit" rx="2.5" ry="2.5" style="stroke:#181818;stroke-width:0.5;" width="163" x="2523.6" y="305"/><ellipse cx="2554.35" cy="326.3516" fill="#ADD1B2" rx="11" ry="11" style="stroke:#181818;stroke-width:1.0;"/><path d="M2557.1156,322.2266 Q2557.2719,322.0078 2557.4594,321.8984 Q2557.6469,321.7891 2557.8656,321.7891 Q2558.2406,321.7891 2558.475,322.0547 Q2558.7094,322.3047 2558.7094,322.9141 L2558.7094,324.3672 Q2558.7094,324.9766 2558.475,325.2422 Q2558.2406,325.5078 2557.8656,325.5078 Q2557.5219,325.5078 2557.3188,325.3047 Q2557.1156,325.1172 2557.0063,324.6016 Q2556.9594,324.2422 2556.7719,324.0547 Q2556.4438,323.6797 2555.8344,323.4609 Q2555.225,323.2422 2554.6,323.2422 Q2553.8344,323.2422 2553.1938,323.5703 Q2552.5688,323.8984 2552.0688,324.6484 Q2551.5844,325.3984 2551.5844,326.4297 L2551.5844,327.5234 Q2551.5844,328.7578 2552.475,329.5859 Q2553.3656,330.3984 2554.9594,330.3984 Q2555.8969,330.3984 2556.5531,330.1484 Q2556.9438,329.9922 2557.3656,329.5547 Q2557.6313,329.2891 2557.7719,329.2109 Q2557.9281,329.1328 2558.1313,329.1328 Q2558.4594,329.1328 2558.7094,329.3984 Q2558.975,329.6484 2558.975,329.9922 Q2558.975,330.3359 2558.6313,330.7422 Q2558.1313,331.3203 2557.3344,331.6484 Q2556.2563,332.1016 2554.9594,332.1016 Q2553.4438,332.1016 2552.2406,331.4766 Q2551.2563,330.9766 2550.5688,329.9141 Q2549.8813,328.8359 2549.8813,327.5547 L2549.8813,326.3984 Q2549.8813,325.0703 2550.4906,323.9297 Q2551.1156,322.7734 2552.2094,322.1641 Q2553.3031,321.5391 2554.5375,321.5391 Q2555.2719,321.5391 2555.9125,321.7109 Q2556.5688,321.8672 2557.1156,322.2266 Z " fill="#000000"/><text fill="#000000" font-family="sans-serif" font-size="12" font-style="italic" lengthAdjust="spacing" textLength="100" x="2569.85" y="322.457">«MonoBehaviour»</text><text fill="#000000" font-family="sans-serif" font-size="14" lengthAdjust="spacing" textLength="54" x="2592.85" y="339.627">ClientInit</text><line style="stroke:#181818;stroke-width:0.5;" x1="2524.6" x2="2685.6" y1="347.7031" y2="347.7031"/><ellipse cx="2534.6" cy="362.0078" fill="none" rx="3" ry="3" style="stroke:#038048;stroke-width:1.0;"/><text fill="#000000" font-family="sans-serif" font-size="14" lengthAdjust="spacing" textLength="137" x="2543.6" y="366.2363">string IP = "127.0.0.1"</text><ellipse cx="2534.6" cy="379.6172" fill="none" rx="3" ry="3" style="stroke:#038048;stroke-width:1.0;"/><text fill="#000000" font-family="sans-serif" font-size="14" lengthAdjust="spacing" textLength="93" x="2543.6" y="383.8457">int Port = 8052</text><ellipse cx="2534.6" cy="397.2266" fill="none" rx="3" ry="3" style="stroke:#038048;stroke-width:1.0;"/><text fill="#000000" font-family="sans-serif" font-size="14" lengthAdjust="spacing" text-decoration="underline" textLength="111" x="2543.6" y="401.4551">ClientInit Instance</text><line style="stroke:#181818;stroke-width:0.5;" x1="2524.6" x2="2685.6" y1="408.5313" y2="408.5313"/><ellipse cx="2534.6" cy="422.8359" fill="#84BE84" rx="3" ry="3" style="stroke:#038048;stroke-width:1.0;"/><text fill="#000000" font-family="sans-serif" font-size="14" lengthAdjust="spacing" textLength="81" x="2543.6" y="427.0645">void Awake()</text><ellipse cx="2534.6" cy="440.4453" fill="#84BE84" rx="3" ry="3" style="stroke:#038048;stroke-width:1.0;"/><text fill="#000000" font-family="sans-serif" font-size="14" lengthAdjust="spacing" textLength="134" x="2543.6" y="444.6738">void Send(object obj)</text><polygon fill="#FFFF44" points="2534.6,453.0547,2538.6,457.0547,2534.6,461.0547,2530.6,457.0547" style="stroke:#B38D22;stroke-width:1.0;"/><text fill="#000000" font-family="sans-serif" font-size="14" lengthAdjust="spacing" textLength="119" x="2543.6" y="462.2832">void FixedUpdate()</text></g><!--MD5=[1ed3c7e592f9114b75dc2d01a735f530]
class MyGame::Server::ServerInit--><g id="elem_MyGame::Server::ServerInit"><rect codeLine="145" fill="#F1F1F1" height="111.5313" id="MyGame::Server::ServerInit" rx="2.5" ry="2.5" style="stroke:#181818;stroke-width:0.5;" width="180" x="154.1" y="951"/><ellipse cx="192.5" cy="972.3516" fill="#ADD1B2" rx="11" ry="11" style="stroke:#181818;stroke-width:1.0;"/><path d="M195.2656,968.2266 Q195.4219,968.0078 195.6094,967.8984 Q195.7969,967.7891 196.0156,967.7891 Q196.3906,967.7891 196.625,968.0547 Q196.8594,968.3047 196.8594,968.9141 L196.8594,970.3672 Q196.8594,970.9766 196.625,971.2422 Q196.3906,971.5078 196.0156,971.5078 Q195.6719,971.5078 195.4688,971.3047 Q195.2656,971.1172 195.1563,970.6016 Q195.1094,970.2422 194.9219,970.0547 Q194.5938,969.6797 193.9844,969.4609 Q193.375,969.2422 192.75,969.2422 Q191.9844,969.2422 191.3438,969.5703 Q190.7188,969.8984 190.2188,970.6484 Q189.7344,971.3984 189.7344,972.4297 L189.7344,973.5234 Q189.7344,974.7578 190.625,975.5859 Q191.5156,976.3984 193.1094,976.3984 Q194.0469,976.3984 194.7031,976.1484 Q195.0938,975.9922 195.5156,975.5547 Q195.7813,975.2891 195.9219,975.2109 Q196.0781,975.1328 196.2813,975.1328 Q196.6094,975.1328 196.8594,975.3984 Q197.125,975.6484 197.125,975.9922 Q197.125,976.3359 196.7813,976.7422 Q196.2813,977.3203 195.4844,977.6484 Q194.4063,978.1016 193.1094,978.1016 Q191.5938,978.1016 190.3906,977.4766 Q189.4063,976.9766 188.7188,975.9141 Q188.0313,974.8359 188.0313,973.5547 L188.0313,972.3984 Q188.0313,971.0703 188.6406,969.9297 Q189.2656,968.7734 190.3594,968.1641 Q191.4531,967.5391 192.6875,967.5391 Q193.4219,967.5391 194.0625,967.7109 Q194.7188,967.8672 195.2656,968.2266 Z " fill="#000000"/><text fill="#000000" font-family="sans-serif" font-size="12" font-style="italic" lengthAdjust="spacing" textLength="100" x="209.7" y="968.457">«MonoBehaviour»</text><text fill="#000000" font-family="sans-serif" font-size="14" lengthAdjust="spacing" textLength="60" x="229.7" y="985.627">ServerInit</text><line style="stroke:#181818;stroke-width:0.5;" x1="155.1" x2="333.1" y1="993.7031" y2="993.7031"/><line style="stroke:#181818;stroke-width:0.5;" x1="155.1" x2="333.1" y1="1001.7031" y2="1001.7031"/><ellipse cx="165.1" cy="1016.0078" fill="#84BE84" rx="3" ry="3" style="stroke:#038048;stroke-width:1.0;"/><text fill="#000000" font-family="sans-serif" font-size="14" lengthAdjust="spacing" textLength="70" x="174.1" y="1020.2363">void Start()</text><ellipse cx="165.1" cy="1033.6172" fill="#84BE84" rx="3" ry="3" style="stroke:#038048;stroke-width:1.0;"/><text fill="#000000" font-family="sans-serif" font-size="14" lengthAdjust="spacing" textLength="119" x="174.1" y="1037.8457">void FixedUpdate()</text><ellipse cx="165.1" cy="1051.2266" fill="#84BE84" rx="3" ry="3" style="stroke:#038048;stroke-width:1.0;"/><text fill="#000000" font-family="sans-serif" font-size="14" lengthAdjust="spacing" textLength="154" x="174.1" y="1055.4551">void OnApplicationQuit()</text></g><!--MD5=[ecd6f575642e75d7726d0212ed15a8e5]
class MyGame::Server::NotQuakeMatch--><g id="elem_MyGame::Server::NotQuakeMatch"><rect codeLine="150" fill="#F1F1F1" height="48" id="MyGame::Server::NotQuakeMatch" rx="2.5" ry="2.5" style="stroke:#181818;stroke-width:0.5;" width="133" x="189.6" y="1188.5"/><ellipse cx="204.6" cy="1204.5" fill="#ADD1B2" rx="11" ry="11" style="stroke:#181818;stroke-width:1.0;"/><path d="M207.3656,1200.375 Q207.5219,1200.1563 207.7094,1200.0469 Q207.8969,1199.9375 208.1156,1199.9375 Q208.4906,1199.9375 208.725,1200.2031 Q208.9594,1200.4531 208.9594,1201.0625 L208.9594,1202.5156 Q208.9594,1203.125 208.725,1203.3906 Q208.4906,1203.6563 208.1156,1203.6563 Q207.7719,1203.6563 207.5688,1203.4531 Q207.3656,1203.2656 207.2563,1202.75 Q207.2094,1202.3906 207.0219,1202.2031 Q206.6938,1201.8281 206.0844,1201.6094 Q205.475,1201.3906 204.85,1201.3906 Q204.0844,1201.3906 203.4438,1201.7188 Q202.8188,1202.0469 202.3188,1202.7969 Q201.8344,1203.5469 201.8344,1204.5781 L201.8344,1205.6719 Q201.8344,1206.9063 202.725,1207.7344 Q203.6156,1208.5469 205.2094,1208.5469 Q206.1469,1208.5469 206.8031,1208.2969 Q207.1938,1208.1406 207.6156,1207.7031 Q207.8813,1207.4375 208.0219,1207.3594 Q208.1781,1207.2813 208.3813,1207.2813 Q208.7094,1207.2813 208.9594,1207.5469 Q209.225,1207.7969 209.225,1208.1406 Q209.225,1208.4844 208.8813,1208.8906 Q208.3813,1209.4688 207.5844,1209.7969 Q206.5063,1210.25 205.2094,1210.25 Q203.6938,1210.25 202.4906,1209.625 Q201.5063,1209.125 200.8188,1208.0625 Q200.1313,1206.9844 200.1313,1205.7031 L200.1313,1204.5469 Q200.1313,1203.2188 200.7406,1202.0781 Q201.3656,1200.9219 202.4594,1200.3125 Q203.5531,1199.6875 204.7875,1199.6875 Q205.5219,1199.6875 206.1625,1199.8594 Q206.8188,1200.0156 207.3656,1200.375 Z " fill="#000000"/><text fill="#000000" font-family="sans-serif" font-size="14" lengthAdjust="spacing" textLength="101" x="218.6" y="1210.2285">NotQuakeMatch</text><line style="stroke:#181818;stroke-width:0.5;" x1="190.6" x2="321.6" y1="1220.5" y2="1220.5"/><line style="stroke:#181818;stroke-width:0.5;" x1="190.6" x2="321.6" y1="1228.5" y2="1228.5"/></g><!--MD5=[b4be59c16bf6ca110a99f016650db24b]
reverse link MyGame::NetworkLib::Common::Logger::ILogNetwork to MyGame::NetworkLib::Common::Logger::DefaultLogger--><g id="link_MyGame::NetworkLib::Common::Logger::ILogNetwork_MyGame::NetworkLib::Common::Logger::DefaultLogger"><path codeLine="62" d="M2178.1,791.16 C2178.1,853.64 2178.1,941.63 2178.1,982.91 " fill="none" id="MyGame::NetworkLib::Common::Logger::ILogNetwork-backto-MyGame::NetworkLib::Common::Logger::DefaultLogger" style="stroke:#181818;stroke-width:1.0;"/><polygon fill="none" points="2171.1,791.06,2178.1,771.06,2185.1,791.06,2171.1,791.06" style="stroke:#181818;stroke-width:1.0;"/></g><!--MD5=[c9a92fc39437c0b6451952edc591c035]
reverse link MyGame::NetworkLib::GameClient::Client to MyGame::NetworkLib::GameClient::Network--><g id="link_MyGame::NetworkLib::GameClient::Client_MyGame::NetworkLib::GameClient::Network"><path codeLine="160" d="M1031.85,828.05 C1032.04,855.76 1032.25,885.41 1032.44,912.39 " fill="none" id="MyGame::NetworkLib::GameClient::Client-backto-MyGame::NetworkLib::GameClient::Network" style="stroke:#181818;stroke-width:1.0;"/><polygon fill="#181818" points="1031.76,815.05,1027.7996,821.0762,1031.8391,827.0497,1035.7995,821.0235,1031.76,815.05" style="stroke:#181818;stroke-width:1.0;"/></g><!--MD5=[a24e5467d861cc1f43292600e4192846]
reverse link MyGame::NetworkLib::GameServer::Server to MyGame::NetworkLib::GameServer::MatchMaking--><g id="link_MyGame::NetworkLib::GameServer::Server_MyGame::NetworkLib::GameServer::MatchMaking"><path codeLine="162" d="M638.1,494.77 C638.1,553.47 638.1,623.52 638.1,669.63 " fill="none" id="MyGame::NetworkLib::GameServer::Server-backto-MyGame::NetworkLib::GameServer::MatchMaking" style="stroke:#181818;stroke-width:1.0;"/><polygon fill="#181818" points="638.1,481.67,634.1,487.67,638.1,493.67,642.1,487.67,638.1,481.67" style="stroke:#181818;stroke-width:1.0;"/></g><!--MD5=[dca63dfa3989ed53cc7e51263da1b00b]
reverse link MyGame::NetworkLib::GameServer::Server to MyGame::NetworkLib::GameClient::Client--><g id="link_MyGame::NetworkLib::GameServer::Server_MyGame::NetworkLib::GameClient::Client"><path codeLine="163" d="M778.42,488.49 C780.99,490.02 783.55,491.53 786.1,493 C811.51,507.66 822.32,503.32 846.1,520.5 C887.01,550.06 926.04,589.68 957.62,625.78 " fill="none" id="MyGame::NetworkLib::GameServer::Server-backto-MyGame::NetworkLib::GameClient::Client" style="stroke:#181818;stroke-width:1.0;"/><polygon fill="#181818" points="767.13,481.61,770.169,488.1495,777.3743,487.8594,774.3353,481.3199,767.13,481.61" style="stroke:#181818;stroke-width:1.0;"/></g><!--MD5=[44f084219d28ecca54db8002815936bd]
reverse link MyGame::NetworkLib::GameServer::MatchMaking to MyGame::NetworkLib::GameServer::Match--><g id="link_MyGame::NetworkLib::GameServer::MatchMaking_MyGame::NetworkLib::GameServer::Match"><path codeLine="164" d="M638.1,784.18 C638.1,839.32 638.1,917.97 638.1,965.29 " fill="none" id="MyGame::NetworkLib::GameServer::MatchMaking-backto-MyGame::NetworkLib::GameServer::Match" style="stroke:#181818;stroke-width:1.0;"/><polygon fill="#181818" points="638.1,771.06,634.1,777.06,638.1,783.06,642.1,777.06,638.1,771.06" style="stroke:#181818;stroke-width:1.0;"/></g><!--MD5=[0ef4b6aa996d73b34bdcfb987d6c2242]
reverse link MyGame::NetworkLib::GameServer::Match to MyGame::NetworkLib::GameClient::Client--><g id="link_MyGame::NetworkLib::GameServer::Match_MyGame::NetworkLib::GameClient::Client"><path codeLine="165" d="M705.74,957.57 C746.46,928.37 799.32,890.38 846.1,856.5 C864.46,843.21 883.81,829.14 902.8,815.3 " fill="none" id="MyGame::NetworkLib::GameServer::Match-backto-MyGame::NetworkLib::GameClient::Client" style="stroke:#181818;stroke-width:1.0;"/><polygon fill="none" points="695.12,965.18,702.3271,964.9383,704.8759,958.1927,697.6688,958.4344,695.12,965.18" style="stroke:#181818;stroke-width:1.0;"/></g><!--MD5=[f3aa6f0e8ac022f51ecb61fea7915087]
reverse link MyGame::NetworkLib::IClient to MyGame::NetworkLib::GameClient::Client--><g id="link_MyGame::NetworkLib::IClient_MyGame::NetworkLib::GameClient::Client"><path codeLine="166" d="M1031.1,501.72 C1031.1,542.16 1031.1,587.2 1031.1,625.78 " fill="none" id="MyGame::NetworkLib::IClient-backto-MyGame::NetworkLib::GameClient::Client" style="stroke:#181818;stroke-width:1.0;"/><polygon fill="none" points="1024.1,501.67,1031.1,481.67,1038.1,501.67,1024.1,501.67" style="stroke:#181818;stroke-width:1.0;"/></g><!--MD5=[34217aafc3915419249b9974b2fe1158]
reverse link MyGame::NetworkLib::IServer to MyGame::NetworkLib::GameServer::Server--><g id="link_MyGame::NetworkLib::IServer_MyGame::NetworkLib::GameServer::Server"><path codeLine="167" d="M638.1,189.46 C638.1,220.15 638.1,258.04 638.1,292.32 " fill="none" id="MyGame::NetworkLib::IServer-backto-MyGame::NetworkLib::GameServer::Server" style="stroke:#181818;stroke-width:1.0;"/><polygon fill="none" points="631.1,189.02,638.1,169.02,645.1,189.02,631.1,189.02" style="stroke:#181818;stroke-width:1.0;"/></g><!--MD5=[694213a1cef127cd13aac48a0752ae28]
reverse link MyGame::NetworkLib::Common::IMatch to MyGame::NetworkLib::GameServer::Match--><g id="link_MyGame::NetworkLib::Common::IMatch_MyGame::NetworkLib::GameServer::Match"><path codeLine="168" d="M1285.68,793.52 C1259.97,817.21 1228.84,841.34 1196.1,856.5 C1063.05,918.09 1011.07,866.69 870.1,907 C818.42,921.78 762.96,945.15 719.23,965.47 " fill="none" id="MyGame::NetworkLib::Common::IMatch-backto-MyGame::NetworkLib::GameServer::Match" style="stroke:#181818;stroke-width:1.0;"/><polygon fill="none" points="1280.87,788.44,1300.17,779.69,1290.54,798.56,1280.87,788.44" style="stroke:#181818;stroke-width:1.0;"/></g><!--MD5=[e0391adaee87ff0aaa2a3382950fc079]
reverse link MyGame::NetworkLib::GameClient::Network to MyGame::NetworkLib::Common::DTOs::Authentication--><g id="link_MyGame::NetworkLib::GameClient::Network_MyGame::NetworkLib::Common::DTOs::Authentication"><path codeLine="170" d="M1193.5,992.38 C1401.02,972.14 1748.35,928.57 1853.1,856.5 C1886.08,833.81 1908.12,793.09 1920.96,762.29 " fill="none" id="MyGame::NetworkLib::GameClient::Network-backto-MyGame::NetworkLib::Common::DTOs::Authentication" style="stroke:#181818;stroke-width:1.0;"/><polygon fill="#181818" points="1180.35,993.65,1186.7049,997.0582,1192.2951,992.503,1185.9402,989.0948,1180.35,993.65" style="stroke:#181818;stroke-width:1.0;"/></g><!--MD5=[fb1f325a25c2c6299c7398fefb186567]
link MyGame::UnityLogger to MyGame::NetworkLib::Common::Logger::ILogNetwork--><g id="link_MyGame::UnityLogger_MyGame::NetworkLib::Common::Logger::ILogNetwork"><path codeLine="172" d="M2419.45,411.39 C2405.72,432.98 2384.32,465.72 2364.1,493 C2322.59,549.01 2272.24,609.95 2234.39,654.49 " fill="none" id="MyGame::UnityLogger-to-MyGame::NetworkLib::Common::Logger::ILogNetwork" style="stroke:#181818;stroke-width:1.0;"/><polygon fill="none" points="2239.62,659.15,2221.31,669.82,2228.97,650.07,2239.62,659.15" style="stroke:#181818;stroke-width:1.0;"/></g><!--MD5=[c941bf978c59722f0624999467d44825]
reverse link MyGame::Client::ClientInit to MyGame::NetworkLib::GameClient::Client--><g id="link_MyGame::Client::ClientInit_MyGame::NetworkLib::GameClient::Client"><path codeLine="174" d="M2540.89,478.38 C2534.37,483.94 2527.43,488.92 2520.1,493 C2459.03,526.95 2433.82,507.91 2364.1,512.5 C2332.39,514.59 1249.26,507.86 1220.1,520.5 C1169.39,542.48 1125.83,585.41 1093.35,625.77 " fill="none" id="MyGame::Client::ClientInit-backto-MyGame::NetworkLib::GameClient::Client" style="stroke:#181818;stroke-width:1.0;"/><polygon fill="#181818" points="2550.78,469.21,2543.6602,470.3537,2541.9776,477.3658,2549.0974,476.222,2550.78,469.21" style="stroke:#181818;stroke-width:1.0;"/></g><!--MD5=[8d9487abebfcf1327e7c746e83a9bb90]
reverse link MyGame::Server::ServerInit to MyGame::NetworkLib::GameServer::Server--><g id="link_MyGame::Server::ServerInit_MyGame::NetworkLib::GameServer::Server"><path codeLine="175" d="M149.69,942.08 C131.61,925.01 115.19,904.96 105.1,882.5 C39.17,735.74 6,647.25 105.1,520.5 C152.56,459.8 352.55,422.93 493.55,404 " fill="none" id="MyGame::Server::ServerInit-backto-MyGame::NetworkLib::GameServer::Server" style="stroke:#181818;stroke-width:1.0;"/><polygon fill="#181818" points="159.58,950.99,157.7995,944.0022,150.6644,942.9581,152.4449,949.9459,159.58,950.99" style="stroke:#181818;stroke-width:1.0;"/></g><!--MD5=[db1db4b648cca0e465738f3078d470a2]
reverse link MyGame::NetworkLib::GameServer::Match to MyGame::Server::NotQuakeMatch--><g id="link_MyGame::NetworkLib::GameServer::Match_MyGame::Server::NotQuakeMatch"><path codeLine="176" d="M544.04,1058.11 C465.97,1099.7 358.49,1156.96 299.39,1188.44 " fill="none" id="MyGame::NetworkLib::GameServer::Match-backto-MyGame::Server::NotQuakeMatch" style="stroke:#181818;stroke-width:1.0;"/><polygon fill="none" points="540.77,1051.92,561.71,1048.69,547.35,1064.27,540.77,1051.92" style="stroke:#181818;stroke-width:1.0;"/></g><!--MD5=[3f0cf31648a5981d411e554743cae716]
reverse link MyGame::Server::ServerInit to MyGame::Server::NotQuakeMatch--><g id="link_MyGame::Server::ServerInit_MyGame::Server::NotQuakeMatch"><path codeLine="177" d="M248.12,1076.2 C250.41,1115.08 253.14,1161.32 254.74,1188.44 " fill="none" id="MyGame::Server::ServerInit-backto-MyGame::Server::NotQuakeMatch" style="stroke:#181818;stroke-width:1.0;"/><polygon fill="#181818" points="247.35,1063.07,243.7133,1069.2969,248.0624,1075.0488,251.6991,1068.822,247.35,1063.07" style="stroke:#181818;stroke-width:1.0;"/></g><!--MD5=[981ac1c345ee54e608718755fece5242]
link MyGame::GameController to MyGame::NetworkLib::GameClient::Network--><g id="link_MyGame::GameController_MyGame::NetworkLib::GameClient::Network"><path codeLine="179" d="M368.32,820.73 C387.71,834.73 408.64,847.42 430.1,856.5 C601.62,929.08 668.39,851.28 846.1,907 C859.33,911.15 872.73,916.23 885.95,921.87 " fill="none" id="MyGame::GameController-MyGame::NetworkLib::GameClient::Network" style="stroke:#181818;stroke-width:1.0;"/><text fill="#000000" font-family="sans-serif" font-size="13" lengthAdjust="spacing" textLength="56" x="507.1" y="878.9951">dequeues</text></g><!--MD5=[282ccc0cf665d360a478a67069b05834]
@startuml

set separator ::
namespace MyGame #LightBlue{
    namespace DTOs #LightSlateGray{
        class PlayerPosition{}
        class Position{}
        class User{}
        class UnityLogger{}
    }
    class GameController <<MonoBehaviour>> #LightSlateGray {
        + void Awake()
        + void Start()
        + void Update()
        + void SetServer(Server server)
        + void SetClient(Client client)
        + Server GetServer()
        + Client GetClient()
        - void HandleMessage(Message msg)
    }

    namespace NetworkLib #LightGray{
        namespace Common #LightYellow{
            interface IMatch{
                + void AddPlayer(Client client)
                + void RemovePlayer(Client client)
                + Message[] GetState()
                + void UpdateState()
            }
            namespace DTOs #LightGreen{
                class Authentication{
                    + string Username
                    + string Password
                }
                class Message{
                    + string Id
                    + MessageType MsgType
                    + byte[] Data
                    + string Callback
                }
                enum MessageType{
                    User,
                    PlayerPosition,
                    Shoot,
                    Player,
                    Update,
                    Message,
                    Login,
                    JoinQueue,
                    LoginResponse,
                    MatchJoined
                }
            }
            namespace Logger #LightGreen{
                interface ILogNetwork{
                    + void Log(string message);
                    + void LogWarning(string message);
                    + void LogError(string message);
                }
                class DefaultLogger{

                }
                DefaultLogger -up-|> ILogNetwork
            }
        }
        interface IClient{
            + bool IsConnected()
            + void Disconnect()
            + async Task SendAsync(byte[] bytes)
            + async Task SendAsync(object obj)
            + void Send(object obj)
            + void Send(byte[] bytes)
            + T Deserialize<T>(byte[] data)
            + byte[] Serialize(object obj)
        }
        interface IServer{
            + void UpdateServer()
            + void Shutdown()
        }

        namespace GameClient #LightYellow{
            class Client {
                + TcpClient Tcp;
                + Network NetworkHandler;
                - NetworkStream _tcpStream;
                - byte[] _TcpReceiveBuffer;
                - BinaryFormatter _br;
                + {static} ILogNetwork Log
                + Client(ILogNetwork log, TcpClient socket)
                - void RecieveCallback(IAsyncResult ar)
            }
            class Network {
                + Client Client
                + Authentication Auth = null
                + bool InGame = false
                + bool InQueue = false
                - ConcurrentQueue<Message> _msgQueue
                + Network(Client client)
                + void Enqueue(Message msg)
                + bool TryDequeue(out Message msg)
            }
        }
        namespace GameServer #LightYellow{
            class Server{
                + int Port
                + TcpListener TCPListener
                + List<Client> Clients
                + MatchMaking MatchMaking
                + {static} ILogNetwork Log
                + Server(ILogNetwork log, int port)
                - void TCPAcceptCallback(IAsyncResult ar)
                - void CheckClientQueues()
            }
            class Match{
                + List<Client> Clients
                - ConcurrentDictionary<string, Message> _playerPositions
            }
            class MatchMaking{
                + List<Match> Matches
                + void UpdateMatches()
                + void Join(Client client)
            }
        }
    }

    struct CONSTANTS <<static>> #LightSlateGray {
        + {static} int PORT
        + {static} Vector3 CameraOffset
        + {static} float Gravity
        + {static} float ProjectileSpeed
        + {static} float PlayerSpeed
        + {static} float JumpForce
    }

    namespace Client #LightSlateGray{
        class ClientInit <<MonoBehaviour>>{
            + string IP = "127.0.0.1"
            + int Port = 8052
            + {static} ClientInit Instance
            + void Awake()
            + void Send(object obj)
            # void FixedUpdate()
        }
    }
    namespace Server #LightSlateGray{
        class ServerInit <<MonoBehaviour>>{
            + void Start()
            + void FixedUpdate()
            + void OnApplicationQuit()
        }
        class NotQuakeMatch{

        }
    }
    class UnityLogger #LightSlateGray {

    }
}


MyGame::NetworkLib::GameClient::Client *- - MyGame::NetworkLib::GameClient::Network

MyGame::NetworkLib::GameServer::Server *- - MyGame::NetworkLib::GameServer::MatchMaking
MyGame::NetworkLib::GameServer::Server *- - MyGame::NetworkLib::GameClient::Client
MyGame::NetworkLib::GameServer::MatchMaking *- - MyGame::NetworkLib::GameServer::Match
MyGame::NetworkLib::GameServer::Match o- - MyGame::NetworkLib::GameClient::Client
MyGame::NetworkLib::IClient <|- - MyGame::NetworkLib::GameClient::Client
MyGame::NetworkLib::IServer <|- - MyGame::NetworkLib::GameServer::Server
MyGame::NetworkLib::Common::IMatch <|- - MyGame::NetworkLib::GameServer::Match

MyGame::NetworkLib::GameClient::Network *- - MyGame::NetworkLib::Common::DTOs::Authentication

MyGame::UnityLogger - -|> MyGame::NetworkLib::Common::Logger::ILogNetwork

MyGame::Client::ClientInit *- - MyGame::NetworkLib::GameClient::Client
MyGame::Server::ServerInit *- - MyGame::NetworkLib::GameServer::Server
MyGame::Server::NotQuakeMatch -up-|> MyGame::NetworkLib::GameServer::Match
MyGame::Server::ServerInit *- - MyGame::Server::NotQuakeMatch

MyGame::GameController - - MyGame::NetworkLib::GameClient::Network : "dequeues"


@enduml

PlantUML version 1.2022.7(Mon Aug 22 19:01:30 CEST 2022)
(GPL source distribution)
Java Runtime: Java(TM) SE Runtime Environment
JVM: Java HotSpot(TM) 64-Bit Server VM
Default Encoding: UTF-8
Language: en
Country: US
--></g></svg>