<?xml version="1.0" encoding="UTF-8" standalone="no"?><svg xmlns="http://www.w3.org/2000/svg" xmlns:xlink="http://www.w3.org/1999/xlink" contentStyleType="text/css" height="837px" preserveAspectRatio="none" style="width:1035px;height:837px;background:#FFFFFF;" version="1.1" viewBox="0 0 1035 837" width="1035px" zoomAndPan="magnify"><defs/><g><!--MD5=[11ead6906dfffc0ca49d124d4c92460c]
cluster MyGame--><g id="cluster_MyGame"><path d="M8.5,6 L69.5,6 A3.75,3.75 0 0 1 72,8.5 L79,29.6094 L1025.5,29.6094 A2.5,2.5 0 0 1 1028,32.1094 L1028,827.5 A2.5,2.5 0 0 1 1025.5,830 L8.5,830 A2.5,2.5 0 0 1 6,827.5 L6,8.5 A2.5,2.5 0 0 1 8.5,6 " fill="#ADD8E6" style="stroke:#000000;stroke-width:1.5;"/><line style="stroke:#000000;stroke-width:1.5;" x1="6" x2="79" y1="29.6094" y2="29.6094"/><text fill="#000000" font-family="sans-serif" font-size="14" font-weight="bold" lengthAdjust="spacing" textLength="60" x="10" y="22.5332">MyGame</text></g><!--MD5=[4c5e6f7a68aaa5109f5e7c6a0739e6cc]
cluster MyGame::NetworkIntegration--><g id="cluster_MyGame::NetworkIntegration"><path d="M32.5,134 L168.5,134 A3.75,3.75 0 0 1 171,136.5 L178,157.6094 L1001.5,157.6094 A2.5,2.5 0 0 1 1004,160.1094 L1004,803.5 A2.5,2.5 0 0 1 1001.5,806 L32.5,806 A2.5,2.5 0 0 1 30,803.5 L30,136.5 A2.5,2.5 0 0 1 32.5,134 " fill="#D3D3D3" style="stroke:#000000;stroke-width:1.5;"/><line style="stroke:#000000;stroke-width:1.5;" x1="30" x2="178" y1="157.6094" y2="157.6094"/><text fill="#000000" font-family="sans-serif" font-size="14" font-weight="bold" lengthAdjust="spacing" textLength="135" x="34" y="150.5332">NetworkIntegration</text></g><!--MD5=[9ead93701fb08eee1f98c4c22ecfc85c]
cluster MyGame::NetworkIntegration::NetworkLib--><g id="cluster_MyGame::NetworkIntegration::NetworkLib"><path d="M563.5,366 L643.5,366 A3.75,3.75 0 0 1 646,368.5 L653,389.6094 L964.5,389.6094 A2.5,2.5 0 0 1 967,392.1094 L967,779.5 A2.5,2.5 0 0 1 964.5,782 L563.5,782 A2.5,2.5 0 0 1 561,779.5 L561,368.5 A2.5,2.5 0 0 1 563.5,366 " fill="#D3D3D3" style="stroke:#000000;stroke-width:1.5;"/><line style="stroke:#000000;stroke-width:1.5;" x1="561" x2="653" y1="389.6094" y2="389.6094"/><text fill="#000000" font-family="sans-serif" font-size="14" font-weight="bold" lengthAdjust="spacing" textLength="79" x="565" y="382.5332">NetworkLib</text></g><!--MD5=[de2bd2822b41b1946f2763048fcbc594]
cluster MyGame::NetworkIntegration::Client--><g id="cluster_MyGame::NetworkIntegration::Client"><path d="M321.5,492 L363.5,492 A3.75,3.75 0 0 1 366,494.5 L373,515.6094 L534.5,515.6094 A2.5,2.5 0 0 1 537,518.1094 L537,653.5 A2.5,2.5 0 0 1 534.5,656 L321.5,656 A2.5,2.5 0 0 1 319,653.5 L319,494.5 A2.5,2.5 0 0 1 321.5,492 " fill="#778899" style="stroke:#000000;stroke-width:1.5;"/><line style="stroke:#000000;stroke-width:1.5;" x1="319" x2="373" y1="515.6094" y2="515.6094"/><text fill="#000000" font-family="sans-serif" font-size="14" font-weight="bold" lengthAdjust="spacing" textLength="41" x="323" y="508.5332">Client</text></g><!--MD5=[85e4af4b10960c398fd069f2db8d7301]
cluster MyGame::NetworkIntegration::Server--><g id="cluster_MyGame::NetworkIntegration::Server"><path d="M419.5,178 L468.5,178 A3.75,3.75 0 0 1 471,180.5 L478,201.6094 L977.5,201.6094 A2.5,2.5 0 0 1 980,204.1094 L980,339.5 A2.5,2.5 0 0 1 977.5,342 L419.5,342 A2.5,2.5 0 0 1 417,339.5 L417,180.5 A2.5,2.5 0 0 1 419.5,178 " fill="#778899" style="stroke:#000000;stroke-width:1.5;"/><line style="stroke:#000000;stroke-width:1.5;" x1="417" x2="478" y1="201.6094" y2="201.6094"/><text fill="#000000" font-family="sans-serif" font-size="14" font-weight="bold" lengthAdjust="spacing" textLength="48" x="421" y="194.5332">Server</text></g><!--MD5=[b719a226b66dfe562bd46d8a459e9658]
class MyGame::GameController--><g id="elem_MyGame::GameController"><rect codeLine="4" fill="#F1F1F1" height="76.3125" id="MyGame::GameController" rx="2.5" ry="2.5" style="stroke:#181818;stroke-width:0.5;" width="132" x="428" y="42"/><ellipse cx="443" cy="63.3516" fill="#ADD1B2" rx="11" ry="11" style="stroke:#181818;stroke-width:1.0;"/><path d="M445.7656,59.2266 Q445.9219,59.0078 446.1094,58.8984 Q446.2969,58.7891 446.5156,58.7891 Q446.8906,58.7891 447.125,59.0547 Q447.3594,59.3047 447.3594,59.9141 L447.3594,61.3672 Q447.3594,61.9766 447.125,62.2422 Q446.8906,62.5078 446.5156,62.5078 Q446.1719,62.5078 445.9688,62.3047 Q445.7656,62.1172 445.6563,61.6016 Q445.6094,61.2422 445.4219,61.0547 Q445.0938,60.6797 444.4844,60.4609 Q443.875,60.2422 443.25,60.2422 Q442.4844,60.2422 441.8438,60.5703 Q441.2188,60.8984 440.7188,61.6484 Q440.2344,62.3984 440.2344,63.4297 L440.2344,64.5234 Q440.2344,65.7578 441.125,66.5859 Q442.0156,67.3984 443.6094,67.3984 Q444.5469,67.3984 445.2031,67.1484 Q445.5938,66.9922 446.0156,66.5547 Q446.2813,66.2891 446.4219,66.2109 Q446.5781,66.1328 446.7813,66.1328 Q447.1094,66.1328 447.3594,66.3984 Q447.625,66.6484 447.625,66.9922 Q447.625,67.3359 447.2813,67.7422 Q446.7813,68.3203 445.9844,68.6484 Q444.9063,69.1016 443.6094,69.1016 Q442.0938,69.1016 440.8906,68.4766 Q439.9063,67.9766 439.2188,66.9141 Q438.5313,65.8359 438.5313,64.5547 L438.5313,63.3984 Q438.5313,62.0703 439.1406,60.9297 Q439.7656,59.7734 440.8594,59.1641 Q441.9531,58.5391 443.1875,58.5391 Q443.9219,58.5391 444.5625,58.7109 Q445.2188,58.8672 445.7656,59.2266 Z " fill="#000000"/><text fill="#000000" font-family="sans-serif" font-size="12" font-style="italic" lengthAdjust="spacing" textLength="100" x="457" y="59.457">«MonoBehaviour»</text><text fill="#000000" font-family="sans-serif" font-size="14" lengthAdjust="spacing" textLength="100" x="457" y="76.627">GameController</text><line style="stroke:#181818;stroke-width:0.5;" x1="429" x2="559" y1="84.7031" y2="84.7031"/><line style="stroke:#181818;stroke-width:0.5;" x1="429" x2="559" y1="92.7031" y2="92.7031"/><ellipse cx="439" cy="107.0078" fill="#84BE84" rx="3" ry="3" style="stroke:#038048;stroke-width:1.0;"/><text fill="#000000" font-family="sans-serif" font-size="14" lengthAdjust="spacing" textLength="70" x="448" y="111.2363">void Start()</text></g><!--MD5=[e53835b074bc04675df65dbae5f553b0]
class MyGame::NetworkIntegration::MessageHandler--><g id="elem_MyGame::NetworkIntegration::MessageHandler"><rect codeLine="22" fill="#F1F1F1" height="93.9219" id="MyGame::NetworkIntegration::MessageHandler" rx="2.5" ry="2.5" style="stroke:#181818;stroke-width:0.5;" width="254" x="46" y="537"/><ellipse cx="115.75" cy="558.3516" fill="#ADD1B2" rx="11" ry="11" style="stroke:#181818;stroke-width:1.0;"/><path d="M118.5156,554.2266 Q118.6719,554.0078 118.8594,553.8984 Q119.0469,553.7891 119.2656,553.7891 Q119.6406,553.7891 119.875,554.0547 Q120.1094,554.3047 120.1094,554.9141 L120.1094,556.3672 Q120.1094,556.9766 119.875,557.2422 Q119.6406,557.5078 119.2656,557.5078 Q118.9219,557.5078 118.7188,557.3047 Q118.5156,557.1172 118.4063,556.6016 Q118.3594,556.2422 118.1719,556.0547 Q117.8438,555.6797 117.2344,555.4609 Q116.625,555.2422 116,555.2422 Q115.2344,555.2422 114.5938,555.5703 Q113.9688,555.8984 113.4688,556.6484 Q112.9844,557.3984 112.9844,558.4297 L112.9844,559.5234 Q112.9844,560.7578 113.875,561.5859 Q114.7656,562.3984 116.3594,562.3984 Q117.2969,562.3984 117.9531,562.1484 Q118.3438,561.9922 118.7656,561.5547 Q119.0313,561.2891 119.1719,561.2109 Q119.3281,561.1328 119.5313,561.1328 Q119.8594,561.1328 120.1094,561.3984 Q120.375,561.6484 120.375,561.9922 Q120.375,562.3359 120.0313,562.7422 Q119.5313,563.3203 118.7344,563.6484 Q117.6563,564.1016 116.3594,564.1016 Q114.8438,564.1016 113.6406,563.4766 Q112.6563,562.9766 111.9688,561.9141 Q111.2813,560.8359 111.2813,559.5547 L111.2813,558.3984 Q111.2813,557.0703 111.8906,555.9297 Q112.5156,554.7734 113.6094,554.1641 Q114.7031,553.5391 115.9375,553.5391 Q116.6719,553.5391 117.3125,553.7109 Q117.9688,553.8672 118.5156,554.2266 Z " fill="#000000"/><text fill="#000000" font-family="sans-serif" font-size="12" font-style="italic" lengthAdjust="spacing" textLength="100" x="139.25" y="554.457">«MonoBehaviour»</text><text fill="#000000" font-family="sans-serif" font-size="14" lengthAdjust="spacing" textLength="106" x="136.25" y="571.627">MessageHandler</text><line style="stroke:#181818;stroke-width:0.5;" x1="47" x2="299" y1="579.7031" y2="579.7031"/><line style="stroke:#181818;stroke-width:0.5;" x1="47" x2="299" y1="587.7031" y2="587.7031"/><ellipse cx="57" cy="602.0078" fill="#84BE84" rx="3" ry="3" style="stroke:#038048;stroke-width:1.0;"/><text fill="#000000" font-family="sans-serif" font-size="14" lengthAdjust="spacing" textLength="85" x="66" y="606.2363">void Update()</text><ellipse cx="57" cy="619.6172" fill="#84BE84" rx="3" ry="3" style="stroke:#038048;stroke-width:1.0;"/><text fill="#000000" font-family="sans-serif" font-size="14" lengthAdjust="spacing" textLength="228" x="66" y="623.8457">void HandleMessage(Message msg)</text></g><!--MD5=[dfbaee4a05baf733b76e1b36c02f29a8]
class MyGame::NetworkIntegration::NetworkLib::Match--><g id="elem_MyGame::NetworkIntegration::NetworkLib::Match"><rect codeLine="13" fill="#F1F1F1" height="65.6094" id="MyGame::NetworkIntegration::NetworkLib::Match" rx="2.5" ry="2.5" style="stroke:#181818;stroke-width:0.5;" width="374" x="577" y="402"/><ellipse cx="740.75" cy="418" fill="#ADD1B2" rx="11" ry="11" style="stroke:#181818;stroke-width:1.0;"/><path d="M743.5156,413.875 Q743.6719,413.6563 743.8594,413.5469 Q744.0469,413.4375 744.2656,413.4375 Q744.6406,413.4375 744.875,413.7031 Q745.1094,413.9531 745.1094,414.5625 L745.1094,416.0156 Q745.1094,416.625 744.875,416.8906 Q744.6406,417.1563 744.2656,417.1563 Q743.9219,417.1563 743.7188,416.9531 Q743.5156,416.7656 743.4063,416.25 Q743.3594,415.8906 743.1719,415.7031 Q742.8438,415.3281 742.2344,415.1094 Q741.625,414.8906 741,414.8906 Q740.2344,414.8906 739.5938,415.2188 Q738.9688,415.5469 738.4688,416.2969 Q737.9844,417.0469 737.9844,418.0781 L737.9844,419.1719 Q737.9844,420.4063 738.875,421.2344 Q739.7656,422.0469 741.3594,422.0469 Q742.2969,422.0469 742.9531,421.7969 Q743.3438,421.6406 743.7656,421.2031 Q744.0313,420.9375 744.1719,420.8594 Q744.3281,420.7813 744.5313,420.7813 Q744.8594,420.7813 745.1094,421.0469 Q745.375,421.2969 745.375,421.6406 Q745.375,421.9844 745.0313,422.3906 Q744.5313,422.9688 743.7344,423.2969 Q742.6563,423.75 741.3594,423.75 Q739.8438,423.75 738.6406,423.125 Q737.6563,422.625 736.9688,421.5625 Q736.2813,420.4844 736.2813,419.2031 L736.2813,418.0469 Q736.2813,416.7188 736.8906,415.5781 Q737.5156,414.4219 738.6094,413.8125 Q739.7031,413.1875 740.9375,413.1875 Q741.6719,413.1875 742.3125,413.3594 Q742.9688,413.5156 743.5156,413.875 Z " fill="#000000"/><text fill="#000000" font-family="sans-serif" font-size="14" lengthAdjust="spacing" textLength="38" x="761.25" y="423.7285">Match</text><line style="stroke:#181818;stroke-width:0.5;" x1="578" x2="950" y1="434" y2="434"/><polygon fill="none" points="588,443.3047,592,447.3047,588,451.3047,584,447.3047" style="stroke:#B38D22;stroke-width:1.0;"/><text fill="#000000" font-family="sans-serif" font-size="14" lengthAdjust="spacing" textLength="348" x="597" y="452.5332">ConcurrentDictionary&lt;string, Message&gt; _lastMessages</text><line style="stroke:#181818;stroke-width:0.5;" x1="578" x2="950" y1="459.6094" y2="459.6094"/></g><!--MD5=[469cf0c69913b3222e9247bb4cf1884c]
class MyGame::NetworkIntegration::NetworkLib::Client--><g id="elem_MyGame::NetworkIntegration::NetworkLib::Client"><rect codeLine="16" fill="#F1F1F1" height="65.6094" id="MyGame::NetworkIntegration::NetworkLib::Client" rx="2.5" ry="2.5" style="stroke:#181818;stroke-width:0.5;" width="325" x="577.5" y="700"/><ellipse cx="717.75" cy="716" fill="#ADD1B2" rx="11" ry="11" style="stroke:#181818;stroke-width:1.0;"/><path d="M720.5156,711.875 Q720.6719,711.6563 720.8594,711.5469 Q721.0469,711.4375 721.2656,711.4375 Q721.6406,711.4375 721.875,711.7031 Q722.1094,711.9531 722.1094,712.5625 L722.1094,714.0156 Q722.1094,714.625 721.875,714.8906 Q721.6406,715.1563 721.2656,715.1563 Q720.9219,715.1563 720.7188,714.9531 Q720.5156,714.7656 720.4063,714.25 Q720.3594,713.8906 720.1719,713.7031 Q719.8438,713.3281 719.2344,713.1094 Q718.625,712.8906 718,712.8906 Q717.2344,712.8906 716.5938,713.2188 Q715.9688,713.5469 715.4688,714.2969 Q714.9844,715.0469 714.9844,716.0781 L714.9844,717.1719 Q714.9844,718.4063 715.875,719.2344 Q716.7656,720.0469 718.3594,720.0469 Q719.2969,720.0469 719.9531,719.7969 Q720.3438,719.6406 720.7656,719.2031 Q721.0313,718.9375 721.1719,718.8594 Q721.3281,718.7813 721.5313,718.7813 Q721.8594,718.7813 722.1094,719.0469 Q722.375,719.2969 722.375,719.6406 Q722.375,719.9844 722.0313,720.3906 Q721.5313,720.9688 720.7344,721.2969 Q719.6563,721.75 718.3594,721.75 Q716.8438,721.75 715.6406,721.125 Q714.6563,720.625 713.9688,719.5625 Q713.2813,718.4844 713.2813,717.2031 L713.2813,716.0469 Q713.2813,714.7188 713.8906,713.5781 Q714.5156,712.4219 715.6094,711.8125 Q716.7031,711.1875 717.9375,711.1875 Q718.6719,711.1875 719.3125,711.3594 Q719.9688,711.5156 720.5156,711.875 Z " fill="#000000"/><text fill="#000000" font-family="sans-serif" font-size="14" lengthAdjust="spacing" textLength="36" x="738.25" y="721.7285">Client</text><line style="stroke:#181818;stroke-width:0.5;" x1="578.5" x2="901.5" y1="732" y2="732"/><polygon fill="none" points="588.5,741.3047,592.5,745.3047,588.5,749.3047,584.5,745.3047" style="stroke:#B38D22;stroke-width:1.0;"/><text fill="#000000" font-family="sans-serif" font-size="14" lengthAdjust="spacing" textLength="299" x="597.5" y="750.5332">ConcurrentQueue&lt;Message&gt; _messageQueue</text><line style="stroke:#181818;stroke-width:0.5;" x1="578.5" x2="901.5" y1="757.6094" y2="757.6094"/></g><!--MD5=[8c30cab17cb2bc09d0c1e85e613ed212]
class MyGame::NetworkIntegration::NetworkLib::Server--><g id="elem_MyGame::NetworkIntegration::NetworkLib::Server"><rect codeLine="19" fill="#F1F1F1" height="48" id="MyGame::NetworkIntegration::NetworkLib::Server" rx="2.5" ry="2.5" style="stroke:#181818;stroke-width:0.5;" width="74" x="776" y="560"/><ellipse cx="791" cy="576" fill="#ADD1B2" rx="11" ry="11" style="stroke:#181818;stroke-width:1.0;"/><path d="M793.7656,571.875 Q793.9219,571.6563 794.1094,571.5469 Q794.2969,571.4375 794.5156,571.4375 Q794.8906,571.4375 795.125,571.7031 Q795.3594,571.9531 795.3594,572.5625 L795.3594,574.0156 Q795.3594,574.625 795.125,574.8906 Q794.8906,575.1563 794.5156,575.1563 Q794.1719,575.1563 793.9688,574.9531 Q793.7656,574.7656 793.6563,574.25 Q793.6094,573.8906 793.4219,573.7031 Q793.0938,573.3281 792.4844,573.1094 Q791.875,572.8906 791.25,572.8906 Q790.4844,572.8906 789.8438,573.2188 Q789.2188,573.5469 788.7188,574.2969 Q788.2344,575.0469 788.2344,576.0781 L788.2344,577.1719 Q788.2344,578.4063 789.125,579.2344 Q790.0156,580.0469 791.6094,580.0469 Q792.5469,580.0469 793.2031,579.7969 Q793.5938,579.6406 794.0156,579.2031 Q794.2813,578.9375 794.4219,578.8594 Q794.5781,578.7813 794.7813,578.7813 Q795.1094,578.7813 795.3594,579.0469 Q795.625,579.2969 795.625,579.6406 Q795.625,579.9844 795.2813,580.3906 Q794.7813,580.9688 793.9844,581.2969 Q792.9063,581.75 791.6094,581.75 Q790.0938,581.75 788.8906,581.125 Q787.9063,580.625 787.2188,579.5625 Q786.5313,578.4844 786.5313,577.2031 L786.5313,576.0469 Q786.5313,574.7188 787.1406,573.5781 Q787.7656,572.4219 788.8594,571.8125 Q789.9531,571.1875 791.1875,571.1875 Q791.9219,571.1875 792.5625,571.3594 Q793.2188,571.5156 793.7656,571.875 Z " fill="#000000"/><text fill="#000000" font-family="sans-serif" font-size="14" lengthAdjust="spacing" textLength="42" x="805" y="581.7285">Server</text><line style="stroke:#181818;stroke-width:0.5;" x1="777" x2="849" y1="592" y2="592"/><line style="stroke:#181818;stroke-width:0.5;" x1="777" x2="849" y1="600" y2="600"/></g><!--MD5=[d63bc09437247e144e906f2db6d8f274]
class MyGame::NetworkIntegration::Client::ClientInit--><g id="elem_MyGame::NetworkIntegration::Client::ClientInit"><rect codeLine="28" fill="#F1F1F1" height="111.5313" id="MyGame::NetworkIntegration::Client::ClientInit" rx="2.5" ry="2.5" style="stroke:#181818;stroke-width:0.5;" width="186" x="335" y="528"/><ellipse cx="376.1" cy="549.3516" fill="#ADD1B2" rx="11" ry="11" style="stroke:#181818;stroke-width:1.0;"/><path d="M378.8656,545.2266 Q379.0219,545.0078 379.2094,544.8984 Q379.3969,544.7891 379.6156,544.7891 Q379.9906,544.7891 380.225,545.0547 Q380.4594,545.3047 380.4594,545.9141 L380.4594,547.3672 Q380.4594,547.9766 380.225,548.2422 Q379.9906,548.5078 379.6156,548.5078 Q379.2719,548.5078 379.0688,548.3047 Q378.8656,548.1172 378.7563,547.6016 Q378.7094,547.2422 378.5219,547.0547 Q378.1938,546.6797 377.5844,546.4609 Q376.975,546.2422 376.35,546.2422 Q375.5844,546.2422 374.9438,546.5703 Q374.3188,546.8984 373.8188,547.6484 Q373.3344,548.3984 373.3344,549.4297 L373.3344,550.5234 Q373.3344,551.7578 374.225,552.5859 Q375.1156,553.3984 376.7094,553.3984 Q377.6469,553.3984 378.3031,553.1484 Q378.6938,552.9922 379.1156,552.5547 Q379.3813,552.2891 379.5219,552.2109 Q379.6781,552.1328 379.8813,552.1328 Q380.2094,552.1328 380.4594,552.3984 Q380.725,552.6484 380.725,552.9922 Q380.725,553.3359 380.3813,553.7422 Q379.8813,554.3203 379.0844,554.6484 Q378.0063,555.1016 376.7094,555.1016 Q375.1938,555.1016 373.9906,554.4766 Q373.0063,553.9766 372.3188,552.9141 Q371.6313,551.8359 371.6313,550.5547 L371.6313,549.3984 Q371.6313,548.0703 372.2406,546.9297 Q372.8656,545.7734 373.9594,545.1641 Q375.0531,544.5391 376.2875,544.5391 Q377.0219,544.5391 377.6625,544.7109 Q378.3188,544.8672 378.8656,545.2266 Z " fill="#000000"/><text fill="#000000" font-family="sans-serif" font-size="12" font-style="italic" lengthAdjust="spacing" textLength="100" x="393.9" y="545.457">«MonoBehaviour»</text><text fill="#000000" font-family="sans-serif" font-size="14" lengthAdjust="spacing" textLength="54" x="416.9" y="562.627">ClientInit</text><line style="stroke:#181818;stroke-width:0.5;" x1="336" x2="520" y1="570.7031" y2="570.7031"/><ellipse cx="346" cy="585.0078" fill="none" rx="3" ry="3" style="stroke:#038048;stroke-width:1.0;"/><text fill="#000000" font-family="sans-serif" font-size="14" lengthAdjust="spacing" textLength="137" x="355" y="589.2363">string IP = "127.0.0.1"</text><ellipse cx="346" cy="602.6172" fill="none" rx="3" ry="3" style="stroke:#038048;stroke-width:1.0;"/><text fill="#000000" font-family="sans-serif" font-size="14" lengthAdjust="spacing" textLength="93" x="355" y="606.8457">int Port = 8052</text><line style="stroke:#181818;stroke-width:0.5;" x1="336" x2="520" y1="613.9219" y2="613.9219"/><ellipse cx="346" cy="628.2266" fill="#84BE84" rx="3" ry="3" style="stroke:#038048;stroke-width:1.0;"/><text fill="#000000" font-family="sans-serif" font-size="14" lengthAdjust="spacing" textLength="160" x="355" y="632.4551">void Send(Message msg)</text></g><!--MD5=[e21fca808d9874f95a9bd476fa21ebcb]
class MyGame::NetworkIntegration::Server::ServerInit--><g id="elem_MyGame::NetworkIntegration::Server::ServerInit"><rect codeLine="35" fill="#F1F1F1" height="111.5313" id="MyGame::NetworkIntegration::Server::ServerInit" rx="2.5" ry="2.5" style="stroke:#181818;stroke-width:0.5;" width="180" x="784" y="214"/><ellipse cx="822.4" cy="235.3516" fill="#ADD1B2" rx="11" ry="11" style="stroke:#181818;stroke-width:1.0;"/><path d="M825.1656,231.2266 Q825.3219,231.0078 825.5094,230.8984 Q825.6969,230.7891 825.9156,230.7891 Q826.2906,230.7891 826.525,231.0547 Q826.7594,231.3047 826.7594,231.9141 L826.7594,233.3672 Q826.7594,233.9766 826.525,234.2422 Q826.2906,234.5078 825.9156,234.5078 Q825.5719,234.5078 825.3688,234.3047 Q825.1656,234.1172 825.0563,233.6016 Q825.0094,233.2422 824.8219,233.0547 Q824.4938,232.6797 823.8844,232.4609 Q823.275,232.2422 822.65,232.2422 Q821.8844,232.2422 821.2438,232.5703 Q820.6188,232.8984 820.1188,233.6484 Q819.6344,234.3984 819.6344,235.4297 L819.6344,236.5234 Q819.6344,237.7578 820.525,238.5859 Q821.4156,239.3984 823.0094,239.3984 Q823.9469,239.3984 824.6031,239.1484 Q824.9938,238.9922 825.4156,238.5547 Q825.6813,238.2891 825.8219,238.2109 Q825.9781,238.1328 826.1813,238.1328 Q826.5094,238.1328 826.7594,238.3984 Q827.025,238.6484 827.025,238.9922 Q827.025,239.3359 826.6813,239.7422 Q826.1813,240.3203 825.3844,240.6484 Q824.3063,241.1016 823.0094,241.1016 Q821.4938,241.1016 820.2906,240.4766 Q819.3063,239.9766 818.6188,238.9141 Q817.9313,237.8359 817.9313,236.5547 L817.9313,235.3984 Q817.9313,234.0703 818.5406,232.9297 Q819.1656,231.7734 820.2594,231.1641 Q821.3531,230.5391 822.5875,230.5391 Q823.3219,230.5391 823.9625,230.7109 Q824.6188,230.8672 825.1656,231.2266 Z " fill="#000000"/><text fill="#000000" font-family="sans-serif" font-size="12" font-style="italic" lengthAdjust="spacing" textLength="100" x="839.6" y="231.457">«MonoBehaviour»</text><text fill="#000000" font-family="sans-serif" font-size="14" lengthAdjust="spacing" textLength="60" x="859.6" y="248.627">ServerInit</text><line style="stroke:#181818;stroke-width:0.5;" x1="785" x2="963" y1="256.7031" y2="256.7031"/><line style="stroke:#181818;stroke-width:0.5;" x1="785" x2="963" y1="264.7031" y2="264.7031"/><ellipse cx="795" cy="279.0078" fill="#84BE84" rx="3" ry="3" style="stroke:#038048;stroke-width:1.0;"/><text fill="#000000" font-family="sans-serif" font-size="14" lengthAdjust="spacing" textLength="70" x="804" y="283.2363">void Start()</text><ellipse cx="795" cy="296.6172" fill="#84BE84" rx="3" ry="3" style="stroke:#038048;stroke-width:1.0;"/><text fill="#000000" font-family="sans-serif" font-size="14" lengthAdjust="spacing" textLength="119" x="804" y="300.8457">void FixedUpdate()</text><ellipse cx="795" cy="314.2266" fill="#84BE84" rx="3" ry="3" style="stroke:#038048;stroke-width:1.0;"/><text fill="#000000" font-family="sans-serif" font-size="14" lengthAdjust="spacing" textLength="154" x="804" y="318.4551">void OnApplicationQuit()</text></g><!--MD5=[db5a396009d1ad8a3cdef0bd34a6ffcd]
class MyGame::NetworkIntegration::Server::NotQuakeMatch--><g id="elem_MyGame::NetworkIntegration::Server::NotQuakeMatch"><rect codeLine="40" fill="#F1F1F1" height="83.2188" id="MyGame::NetworkIntegration::Server::NotQuakeMatch" rx="2.5" ry="2.5" style="stroke:#181818;stroke-width:0.5;" width="316" x="433" y="228.5"/><ellipse cx="536.25" cy="244.5" fill="#ADD1B2" rx="11" ry="11" style="stroke:#181818;stroke-width:1.0;"/><path d="M539.0156,240.375 Q539.1719,240.1563 539.3594,240.0469 Q539.5469,239.9375 539.7656,239.9375 Q540.1406,239.9375 540.375,240.2031 Q540.6094,240.4531 540.6094,241.0625 L540.6094,242.5156 Q540.6094,243.125 540.375,243.3906 Q540.1406,243.6563 539.7656,243.6563 Q539.4219,243.6563 539.2188,243.4531 Q539.0156,243.2656 538.9063,242.75 Q538.8594,242.3906 538.6719,242.2031 Q538.3438,241.8281 537.7344,241.6094 Q537.125,241.3906 536.5,241.3906 Q535.7344,241.3906 535.0938,241.7188 Q534.4688,242.0469 533.9688,242.7969 Q533.4844,243.5469 533.4844,244.5781 L533.4844,245.6719 Q533.4844,246.9063 534.375,247.7344 Q535.2656,248.5469 536.8594,248.5469 Q537.7969,248.5469 538.4531,248.2969 Q538.8438,248.1406 539.2656,247.7031 Q539.5313,247.4375 539.6719,247.3594 Q539.8281,247.2813 540.0313,247.2813 Q540.3594,247.2813 540.6094,247.5469 Q540.875,247.7969 540.875,248.1406 Q540.875,248.4844 540.5313,248.8906 Q540.0313,249.4688 539.2344,249.7969 Q538.1563,250.25 536.8594,250.25 Q535.3438,250.25 534.1406,249.625 Q533.1563,249.125 532.4688,248.0625 Q531.7813,246.9844 531.7813,245.7031 L531.7813,244.5469 Q531.7813,243.2188 532.3906,242.0781 Q533.0156,240.9219 534.1094,240.3125 Q535.2031,239.6875 536.4375,239.6875 Q537.1719,239.6875 537.8125,239.8594 Q538.4688,240.0156 539.0156,240.375 Z " fill="#000000"/><text fill="#000000" font-family="sans-serif" font-size="14" lengthAdjust="spacing" textLength="101" x="556.75" y="250.2285">NotQuakeMatch</text><line style="stroke:#181818;stroke-width:0.5;" x1="434" x2="748" y1="260.5" y2="260.5"/><polygon fill="none" points="444,269.8047,448,273.8047,444,277.8047,440,273.8047" style="stroke:#B38D22;stroke-width:1.0;"/><text fill="#000000" font-family="sans-serif" font-size="14" lengthAdjust="spacing" textLength="287" x="453" y="279.0332">Dictionary&lt;string, Message&gt; _playerPositions</text><polygon fill="none" points="444,287.4141,448,291.4141,444,295.4141,440,291.4141" style="stroke:#B38D22;stroke-width:1.0;"/><text fill="#000000" font-family="sans-serif" font-size="14" lengthAdjust="spacing" textLength="290" x="453" y="296.6426">Dictionary&lt;string, Message&gt; _playerRotations</text><line style="stroke:#181818;stroke-width:0.5;" x1="434" x2="748" y1="303.7188" y2="303.7188"/></g><!--MD5=[7273996adadbf98f17c9bfe3a7a10993]
reverse link MyGame::NetworkIntegration::Server::ServerInit to MyGame::NetworkIntegration::NetworkLib::Server--><g id="link_MyGame::NetworkIntegration::Server::ServerInit_MyGame::NetworkIntegration::NetworkLib::Server"><path codeLine="48" d="M956.27,336.4 C961.29,343.19 965.66,350.41 969,358 C988.7,402.75 991.04,424.36 969,468 C944.27,516.95 887.79,550.19 850.01,567.88 " fill="none" id="MyGame::NetworkIntegration::Server::ServerInit-backto-MyGame::NetworkIntegration::NetworkLib::Server" style="stroke:#181818;stroke-width:1.0;"/><polygon fill="#181818" points="947.89,326.09,948.5664,333.2693,955.4536,335.4062,954.7772,328.2269,947.89,326.09" style="stroke:#181818;stroke-width:1.0;"/></g><!--MD5=[ad828a9eb7a3c4386fb313a1dee3ddaa]
reverse link MyGame::NetworkIntegration::Client::ClientInit to MyGame::NetworkIntegration::NetworkLib::Client--><g id="link_MyGame::NetworkIntegration::Client::ClientInit_MyGame::NetworkIntegration::NetworkLib::Client"><path codeLine="49" d="M527.46,646.57 C538.63,652.73 549.96,658.67 561,664 C588.1,677.07 618.41,689.4 646.27,699.88 " fill="none" id="MyGame::NetworkIntegration::Client::ClientInit-backto-MyGame::NetworkIntegration::NetworkLib::Client" style="stroke:#181818;stroke-width:1.0;"/><polygon fill="#181818" points="515.9,640.08,519.175,646.5045,526.3649,645.9525,523.0899,639.5279,515.9,640.08" style="stroke:#181818;stroke-width:1.0;"/></g><!--MD5=[9723cc5cacda2af7a094c712f83d6772]
link MyGame::NetworkIntegration::Server::NotQuakeMatch to MyGame::NetworkIntegration::NetworkLib::Match--><g id="link_MyGame::NetworkIntegration::Server::NotQuakeMatch_MyGame::NetworkIntegration::NetworkLib::Match"><path codeLine="50" d="M634.21,311.71 C658.86,334.93 689.82,364.11 715.33,388.14 " fill="none" id="MyGame::NetworkIntegration::Server::NotQuakeMatch-to-MyGame::NetworkIntegration::NetworkLib::Match" style="stroke:#181818;stroke-width:1.0;"/><polygon fill="none" points="720.25,383.16,730.01,401.97,710.65,393.35,720.25,383.16" style="stroke:#181818;stroke-width:1.0;"/></g><!--MD5=[d07ddafb56bc8b740eccff8b82179a97]
link MyGame::NetworkIntegration::NetworkLib::Match to MyGame::NetworkIntegration::NetworkLib::Server--><g id="link_MyGame::NetworkIntegration::NetworkLib::Match_MyGame::NetworkIntegration::NetworkLib::Server"><path codeLine="52" d="M778.5487,479.6429 C778.5487,479.6429 801.5153,548.5558 801.5153,548.5558 " fill="none" id="MyGame::NetworkIntegration::NetworkLib::Match-MyGame::NetworkIntegration::NetworkLib::Server" style="stroke:#181818;stroke-width:1.0;"/><polygon fill="#181818" points="805.31,559.94,807.2074,552.983,801.5153,548.5558,799.6179,555.5128,805.31,559.94" style="stroke:#181818;stroke-width:1.0;"/><polygon fill="none" points="774.75,468.26,772.8551,475.2177,778.5487,479.6429,780.4436,472.6852,774.75,468.26" style="stroke:#181818;stroke-width:1.0;"/></g><!--MD5=[38c4932d0097200f5de5df2ee6255644]
reverse link MyGame::NetworkIntegration::NetworkLib::Match to MyGame::NetworkIntegration::NetworkLib::Client--><g id="link_MyGame::NetworkIntegration::NetworkLib::Match_MyGame::NetworkIntegration::NetworkLib::Client"><path codeLine="53" d="M759.27,481.06 C759.18,482.05 759.09,483.03 759,484 C752,561.41 745.45,652.57 742.18,699.87 " fill="none" id="MyGame::NetworkIntegration::NetworkLib::Match-backto-MyGame::NetworkIntegration::NetworkLib::Client" style="stroke:#181818;stroke-width:1.0;"/><polygon fill="none" points="760.54,468,755.9787,473.5852,759.3799,479.9438,763.9412,474.3586,760.54,468" style="stroke:#181818;stroke-width:1.0;"/></g><!--MD5=[c2b4c17ad12c09c1c483ca6401cb1545]
reverse link MyGame::NetworkIntegration::MessageHandler to MyGame::NetworkIntegration::NetworkLib::Client--><g id="link_MyGame::NetworkIntegration::MessageHandler_MyGame::NetworkIntegration::NetworkLib::Client"><path codeLine="54" d="M258.15,637.23 C277.6,647.4 298.57,657.05 319,664 C401.88,692.21 498.02,708.87 577.49,718.63 " fill="none" id="MyGame::NetworkIntegration::MessageHandler-backto-MyGame::NetworkIntegration::NetworkLib::Client" style="stroke:#181818;stroke-width:1.0;"/><polygon fill="none" points="246.58,631.03,249.9778,637.3904,257.1558,636.7003,253.758,630.3399,246.58,631.03" style="stroke:#181818;stroke-width:1.0;"/></g><!--MD5=[84e7f3fcc563d8bf889232a105a4a327]
reverse link MyGame::GameController to MyGame::NetworkIntegration::MessageHandler--><g id="link_MyGame::GameController_MyGame::NetworkIntegration::MessageHandler"><path codeLine="57" d="M416.16,106.56 C406.3,111.95 396.9,118.38 389,126 C266.27,244.31 205.43,446.2 183.22,536.71 " fill="none" id="MyGame::GameController-backto-MyGame::NetworkIntegration::MessageHandler" style="stroke:#181818;stroke-width:1.0;"/><polygon fill="none" points="427.91,100.69,420.7555,99.7885,417.1716,106.046,424.3261,106.9475,427.91,100.69" style="stroke:#181818;stroke-width:1.0;"/></g><!--MD5=[7d65bc37707dbe6a84bb2ef3f7969a2f]
reverse link MyGame::GameController to MyGame::NetworkIntegration::Server::ServerInit--><g id="link_MyGame::GameController_MyGame::NetworkIntegration::Server::ServerInit"><path codeLine="58" d="M573.08,87.46 C641.8,94.25 735.18,106.67 767,126 C801.19,146.77 828.09,182.92 846.37,213.67 " fill="none" id="MyGame::GameController-backto-MyGame::NetworkIntegration::Server::ServerInit" style="stroke:#181818;stroke-width:1.0;"/><polygon fill="none" points="560.12,86.22,565.7102,90.7752,572.0651,87.367,566.4749,82.8118,560.12,86.22" style="stroke:#181818;stroke-width:1.0;"/></g><!--MD5=[85e0c41ccfee30c00674aef3121c66b1]
reverse link MyGame::GameController to MyGame::NetworkIntegration::Client::ClientInit--><g id="link_MyGame::GameController_MyGame::NetworkIntegration::Client::ClientInit"><path codeLine="59" d="M419.35,122.27 C418.52,123.48 417.73,124.72 417,126 C378.64,192.86 404.83,421.38 419.69,527.73 " fill="none" id="MyGame::GameController-backto-MyGame::NetworkIntegration::Client::ClientInit" style="stroke:#181818;stroke-width:1.0;"/><polygon fill="none" points="427.96,112.22,421.0201,114.179,420.1592,121.3385,427.0991,119.3795,427.96,112.22" style="stroke:#181818;stroke-width:1.0;"/></g><!--MD5=[2bfe63e860da44ce3c9f3bf0ab57b748]
reverse link MyGame::GameController to MyGame::NetworkIntegration::Server::NotQuakeMatch--><g id="link_MyGame::GameController_MyGame::NetworkIntegration::Server::NotQuakeMatch"><path codeLine="60" d="M519.2,129.85 C534.99,160.45 555.11,199.43 570.03,228.35 " fill="none" id="MyGame::GameController-backto-MyGame::NetworkIntegration::Server::NotQuakeMatch" style="stroke:#181818;stroke-width:1.0;"/><polygon fill="none" points="513.16,118.14,512.3535,125.3059,518.658,128.8064,519.4645,121.6405,513.16,118.14" style="stroke:#181818;stroke-width:1.0;"/></g><!--MD5=[5b09068389eb309daa1947d8dfc3e405]
reverse link MyGame::NetworkIntegration::NetworkLib::Server to MyGame::NetworkIntegration::NetworkLib::Client--><g id="link_MyGame::NetworkIntegration::NetworkLib::Server_MyGame::NetworkIntegration::NetworkLib::Client"><path codeLine="62" d="M795.54,620.16 C783.52,644.36 767.68,676.26 755.99,699.8 " fill="none" id="MyGame::NetworkIntegration::NetworkLib::Server-backto-MyGame::NetworkIntegration::NetworkLib::Client" style="stroke:#181818;stroke-width:1.0;"/><polygon fill="#181818" points="801.43,608.29,795.1778,611.8831,796.0898,619.0363,802.342,615.4432,801.43,608.29" style="stroke:#181818;stroke-width:1.0;"/></g><!--MD5=[9ff813829068ad85999b1f624561ab98]
@startuml

set separator ::
namespace MyGame #LightBlue{
    class GameController <<MonoBehaviour>> {
        + void Start()
    }

    namespace NetworkIntegration #LightGray{



        namespace NetworkLib #LightGray{
            class Match{
                # ConcurrentDictionary<string, Message> _lastMessages
            }
            class Client{
                # ConcurrentQueue<Message> _messageQueue
            }
            class Server{}
        }

        class MessageHandler <<MonoBehaviour>>{
            + void Update()
            + void HandleMessage(Message msg)
        }

        namespace Client #LightSlateGray{
            class ClientInit <<MonoBehaviour>>{
                + string IP = "127.0.0.1"
                + int Port = 8052
                + void Send(Message msg)
            }
        }
        namespace Server #LightSlateGray{
            class ServerInit <<MonoBehaviour>>{
                + void Start()
                + void FixedUpdate()
                + void OnApplicationQuit()
            }
            class NotQuakeMatch{
                # Dictionary<string, Message> _playerPositions
                # Dictionary<string, Message> _playerRotations
            }
        }
    }
}

MyGame::NetworkIntegration::Server::ServerInit *- - MyGame::NetworkIntegration::NetworkLib::Server
MyGame::NetworkIntegration::Client::ClientInit *- - MyGame::NetworkIntegration::NetworkLib::Client
MyGame::NetworkIntegration::Server::NotQuakeMatch - -|> MyGame::NetworkIntegration::NetworkLib::Match

MyGame::NetworkIntegration::NetworkLib::Match o- -* MyGame::NetworkIntegration::NetworkLib::Server
MyGame::NetworkIntegration::NetworkLib::Match o- - MyGame::NetworkIntegration::NetworkLib::Client
MyGame::NetworkIntegration::MessageHandler o- - MyGame::NetworkIntegration::NetworkLib::Client


MyGame::GameController o- - MyGame::NetworkIntegration::MessageHandler
MyGame::GameController o- - MyGame::NetworkIntegration::Server::ServerInit
MyGame::GameController o- - MyGame::NetworkIntegration::Client::ClientInit
MyGame::GameController o- - MyGame::NetworkIntegration::Server::NotQuakeMatch

MyGame::NetworkIntegration::NetworkLib::Server *- - MyGame::NetworkIntegration::NetworkLib::Client



@enduml

PlantUML version 1.2022.7(Mon Aug 22 19:01:30 CEST 2022)
(GPL source distribution)
Java Runtime: Java(TM) SE Runtime Environment
JVM: Java HotSpot(TM) 64-Bit Server VM
Default Encoding: UTF-8
Language: en
Country: US
--></g></svg>